<?xml version="1.0" encoding="UTF-8" standalone="no"?>
<!-- Created with Inkscape (http://www.inkscape.org/) -->

<svg
   width="210mm"
   height="297mm"
   viewBox="0 0 210 297"
   version="1.1"
   id="svg5"
   inkscape:version="1.2.2 (b0a8486541, 2022-12-01)"
   sodipodi:docname="all_radicals.svg"
   xmlns:inkscape="http://www.inkscape.org/namespaces/inkscape"
   xmlns:sodipodi="http://sodipodi.sourceforge.net/DTD/sodipodi-0.dtd"
   xmlns="http://www.w3.org/2000/svg"
   xmlns:svg="http://www.w3.org/2000/svg">
  <sodipodi:namedview
     id="namedview7"
     pagecolor="#c9d69d"
     bordercolor="#eeeeee"
     borderopacity="1"
     inkscape:showpageshadow="0"
     inkscape:pageopacity="1"
     inkscape:pagecheckerboard="0"
     inkscape:deskcolor="#505050"
     inkscape:document-units="mm"
     showgrid="false"
     inkscape:zoom="0.74029882"
     inkscape:cx="292.44947"
     inkscape:cy="561.25984"
     inkscape:window-width="1920"
     inkscape:window-height="1015"
     inkscape:window-x="0"
     inkscape:window-y="0"
     inkscape:window-maximized="1"
     inkscape:current-layer="layer1" />
  <defs
     id="defs2" />
  <g
     inkscape:label="Layer 1"
     inkscape:groupmode="layer"
     id="layer1">
    <path
       style="fill:none;stroke:#000000;stroke-width:1.80137;stroke-linecap:round;stroke-linejoin:round;stroke-dasharray:none;paint-order:fill markers stroke;stop-color:#000000"
       d="m 63.660249,13.464715 c 0,0 -4.748873,20.326564 -0.360838,22.194066 4.388037,1.8675 10.678949,2.012228 15.801767,-0.518675 5.122815,-2.530901 -2.588977,-21.751044 -2.588977,-21.751044"
       id="path563"
       sodipodi:nodetypes="czzc" />
    <path
       style="fill:none;stroke:#000000;stroke-width:1.80137;stroke-linecap:round;stroke-linejoin:round;stroke-dasharray:none;paint-order:fill markers stroke;stop-color:#000000"
       d="m 89.174623,28.427125 c 5.766455,-0.222246 5.336578,-4.644599 5.73312,-8.50677 0.121504,3.328021 -0.767662,6.987849 3.679504,8.89573"
       id="path1941"
       sodipodi:nodetypes="ccc" />
    <path
       style="fill:none;stroke:#000000;stroke-width:1.80137;stroke-linecap:round;stroke-linejoin:round;stroke-dasharray:none;paint-order:fill markers stroke;stop-color:#000000"
       d="m 110.50927,15.006695 3.19807,-3.502245 0.16751,22.848349"
       id="path2669" />
    <path
       style="fill:none;stroke:#000000;stroke-width:1.80137;stroke-linecap:round;stroke-linejoin:round;stroke-dasharray:none;paint-order:fill markers stroke;stop-color:#000000"
       d="m 117.09768,17.798222 0.10842,16.552701"
       id="path2671" />
    <path
       style="fill:none;stroke:#000000;stroke-width:1.80137;stroke-linecap:round;stroke-linejoin:round;stroke-dasharray:none;paint-order:fill markers stroke;stop-color:#000000"
       d="m 127.81635,30.017557 c -4.3687,-5.493537 1.93643,-9.433545 6.12404,2.511666 -3.80115,-9.695886 2.80656,-29.5830212 3.76262,-14.28348"
       id="path4125"
       sodipodi:nodetypes="ccc" />
    <path
       style="fill:none;stroke:#000000;stroke-width:1.80137;stroke-linecap:round;stroke-linejoin:round;stroke-dasharray:none;paint-order:fill markers stroke;stop-color:#000000"
       d="M 22.332696,31.704995 V 23.244233 L 49.84895,23.206154"
       id="path7041" />
    <path
       style="fill:none;stroke:#000000;stroke-width:1.80137;stroke-linecap:round;stroke-linejoin:round;stroke-dasharray:none;paint-order:fill markers stroke;stop-color:#000000"
       d="m 154.3159,16.810406 c 3.51971,4.912378 2.53704,11.004597 1.40905,17.134901 3.29526,-5.211771 7.9678,-10.833744 9.7316,-17.055707"
       id="path7779"
       sodipodi:nodetypes="ccc" />
    <path
       style="fill:none;stroke:#000000;stroke-width:1.80137;stroke-linecap:round;stroke-linejoin:round;stroke-dasharray:none;paint-order:fill markers stroke;stop-color:#000000"
       d="m 173.01241,129.57433 c 8.63919,-1.13886 14.07294,-8.11506 19.40322,-15.27967 -2.22476,8.52178 -3.52078,18.87738 -8.31961,26.79307"
       id="path7779-5"
       sodipodi:nodetypes="ccc" />
    <path
       style="fill:none;stroke:#000000;stroke-width:1.80137;stroke-linecap:round;stroke-linejoin:round;stroke-dasharray:none;paint-order:fill markers stroke;stop-color:#000000"
       d="m 35.996462,43.000094 -6.085767,15.530863 9.289587,0.25999 -6.777372,14.393132"
       id="path9970" />
    <path
       style="fill:none;stroke:#000000;stroke-width:1.80137;stroke-linecap:round;stroke-linejoin:round;stroke-dasharray:none;paint-order:fill markers stroke;stop-color:#000000"
       d="m 56.114839,64.861258 16.104958,-9.756857 13.9856,9.734782"
       id="path9972" />
    <path
       style="fill:none;stroke:#000000;stroke-width:1.80137;stroke-linecap:round;stroke-linejoin:round;stroke-dasharray:none;paint-order:fill markers stroke;stop-color:#000000"
       d="m 99.773909,47.628427 3.179181,7.215222 16.61115,-0.381721 2.41385,-7.016745"
       id="path9987" />
    <path
       style="fill:none;stroke:#000000;stroke-width:1.80137;stroke-linecap:round;stroke-linejoin:round;stroke-dasharray:none;paint-order:fill markers stroke;stop-color:#000000"
       d="m 136.04972,57.427816 -3.61867,-5.966584 c 8.19459,3.676695 16.55405,6.32289 26.28503,0.396184"
       id="path10729"
       sodipodi:nodetypes="ccc" />
    <path
       style="fill:none;stroke:#000000;stroke-width:1.80137;stroke-linecap:round;stroke-linejoin:round;stroke-dasharray:none;paint-order:fill markers stroke;stop-color:#000000"
       d="m 24.672679,93.162201 c 8.203277,5.032134 16.406554,5.476244 24.609832,-0.60716"
       id="path11474"
       sodipodi:nodetypes="cc" />
    <path
       style="fill:none;stroke:#000000;stroke-width:1.80137;stroke-linecap:round;stroke-linejoin:round;stroke-dasharray:none;paint-order:fill markers stroke;stop-color:#000000"
       d="m 57.042025,85.643827 c 3.872641,6.081853 3.639303,11.084122 -0.546503,14.886213"
       id="path12949"
       sodipodi:nodetypes="cc" />
    <path
       style="fill:none;stroke:#000000;stroke-width:1.80137;stroke-linecap:round;stroke-linejoin:round;stroke-dasharray:none;paint-order:fill markers stroke;stop-color:#000000"
       d="m 68.669415,92.599646 c 6.475992,-9.543411 12.073197,10.457774 20.676608,-0.529765"
       id="path13711"
       sodipodi:nodetypes="cc" />
    <path
       style="fill:none;stroke:#000000;stroke-width:1.80137;stroke-linecap:round;stroke-linejoin:round;stroke-dasharray:none;paint-order:fill markers stroke;stop-color:#000000"
       d="m 143.86074,186.45208 c 9.54342,6.47599 -10.45777,12.0732 0.52977,20.67661"
       id="path13711-7"
       sodipodi:nodetypes="cc" />
    <path
       style="fill:none;stroke:#000000;stroke-width:1.80137;stroke-linecap:round;stroke-linejoin:round;stroke-dasharray:none;paint-order:fill markers stroke;stop-color:#000000"
       d="m 189.15342,84.261173 c 0.51745,9.259715 15.87499,-1.995109 7.64875,-7.121543 -5.6426,-3.516373 -10.30494,3.686149 -7.3257,10.125645 3.38238,7.310874 -0.54111,14.830515 -0.90009,14.776225"
       id="path14457"
       sodipodi:nodetypes="cssc" />
    <path
       style="fill:none;stroke:#000000;stroke-width:1.80137;stroke-linecap:round;stroke-linejoin:round;stroke-dasharray:none;paint-order:fill markers stroke;stop-color:#000000"
       d="m 132.69589,78.576316 c -3.873,-0.522797 -10.06617,7.129387 -7.94183,11.612703 2.12433,4.483316 9.76727,4.346132 12.47974,0.41447 2.71247,-3.931658 -0.6649,-11.504376 -4.53791,-12.027173 z"
       id="path14478"
       sodipodi:nodetypes="zzzz" />
    <path
       style="fill:none;stroke:#000000;stroke-width:1.80137;stroke-linecap:round;stroke-linejoin:round;stroke-dasharray:none;paint-order:fill markers stroke;stop-color:#000000"
       d="m 148.49714,87.523195 c -1.5003,0.154008 -2.24973,2.743198 -1.49291,3.902 0.7568,1.158803 3.37058,1.497164 4.12162,0.199159 0.75103,-1.298003 -1.12841,-4.255167 -2.62871,-4.101159 z"
       id="path14480"
       sodipodi:nodetypes="zzzz" />
    <path
       style="fill:none;stroke:#000000;stroke-width:1.80137;stroke-linecap:round;stroke-linejoin:round;stroke-dasharray:none;paint-order:fill markers stroke;stop-color:#000000"
       d="m 26.583977,128.18113 27.090746,-0.0804"
       id="path16682" />
    <path
       style="fill:none;stroke:#000000;stroke-width:1.80137;stroke-linecap:round;stroke-linejoin:round;stroke-dasharray:none;paint-order:fill markers stroke;stop-color:#000000"
       d="m 69.093678,114.02045 c 14.008122,3.29922 14.179726,23.63116 -0.256994,25.98681"
       id="path17410"
       sodipodi:nodetypes="cc" />
    <g
       id="g1559">
      <path
         style="fill:none;stroke:#000000;stroke-width:1.80137;stroke-linecap:round;stroke-linejoin:round;stroke-dasharray:none;paint-order:fill markers stroke;stop-color:#000000"
         d="m 105.73778,119.71272 -0.22719,22.30941"
         id="path18161" />
      <path
         style="fill:none;stroke:#000000;stroke-width:1.80137;stroke-linecap:round;stroke-linejoin:round;stroke-dasharray:none;paint-order:fill markers stroke;stop-color:#000000"
         d="m 95.312756,125.61985 c 4.046955,-7.12657 6.261294,-9.32935 22.307934,-9.60982"
         id="path18163"
         sodipodi:nodetypes="cc" />
    </g>
    <path
       style="fill:none;stroke:#000000;stroke-width:1.80137;stroke-linecap:round;stroke-linejoin:round;stroke-dasharray:none;paint-order:fill markers stroke;stop-color:#000000"
       d="m 140.75264,141.08169 -9.25106,-0.16928 11.95023,-24.25736 10.8897,24.26527 4.72674,-7.90943"
       id="path19642"
       sodipodi:nodetypes="ccccc" />
    <path
       style="fill:none;stroke:#000000;stroke-width:1.80137;stroke-linecap:round;stroke-linejoin:round;stroke-dasharray:none;paint-order:fill markers stroke;stop-color:#000000"
       d="m 31.200496,161.79318 c 5.975052,-0.80787 10.714359,3.87589 11.508383,8.94845 2.242889,-4.78462 6.267722,-10.30863 13.026404,-8.82146"
       id="path20370"
       sodipodi:nodetypes="ccc" />
    <path
       style="fill:none;stroke:#000000;stroke-width:1.80137;stroke-linecap:round;stroke-linejoin:round;stroke-dasharray:none;paint-order:fill markers stroke;stop-color:#000000"
       d="m 72.395122,170.95519 c -7.292524,-11.20571 18.222627,-12.66193 10.401024,0.0124"
       id="path22577"
       sodipodi:nodetypes="cc" />
    <g
       id="g24065"
       transform="matrix(0.90068461,0,0,0.90068461,2.1285292,1.0531318)">
      <path
         style="fill:none;stroke:#000000;stroke-width:2;stroke-linecap:round;stroke-linejoin:round;stroke-dasharray:none;paint-order:fill markers stroke;stop-color:#000000"
         d="m 118.40448,184.48607 c 4.09173,0.79399 7.04046,3.23359 7.48628,9.2767 l -0.13832,-30.63223"
         id="path23333"
         sodipodi:nodetypes="ccc" />
      <path
         style="fill:none;stroke:#000000;stroke-width:2;stroke-linecap:round;stroke-linejoin:round;stroke-dasharray:none;paint-order:fill markers stroke;stop-color:#000000"
         d="m 128.93126,177.62159 5.3925,-7.08523"
         id="path23335" />
    </g>
    <path
       style="fill:none;stroke:#000000;stroke-width:1.80137;stroke-linecap:round;stroke-linejoin:round;stroke-dasharray:none;paint-order:fill markers stroke;stop-color:#000000"
       d="m 152.26509,149.05282 c -12.75092,-2.62433 -11.55069,14.21657 -0.22868,9.38056 l -0.0269,14.57833"
       id="path24098"
       sodipodi:nodetypes="ccc" />
    <path
       style="fill:none;stroke:#000000;stroke-width:1.80137;stroke-linecap:round;stroke-linejoin:round;stroke-dasharray:none;paint-order:fill markers stroke;stop-color:#000000"
       d="m 29.224577,189.48552 7.638762,-7.90925 -0.625396,25.1952 10.385276,-17.43974"
       id="path25584" />
    <path
       style="fill:none;stroke:#000000;stroke-width:1.80137;stroke-linecap:round;stroke-linejoin:round;stroke-dasharray:none;paint-order:fill markers stroke;stop-color:#000000"
       d="m 64.262837,192.75832 6.900516,-8.57323 c -0.415707,14.15802 0.956826,23.09943 8.33754,23.21111 8.542114,0.12923 10.09354,-7.52344 9.651007,-22.78026"
       id="path25586"
       sodipodi:nodetypes="ccsc" />
    <path
       style="fill:none;stroke:#000000;stroke-width:1.80092;stroke-linecap:round;stroke-linejoin:round;stroke-dasharray:none;paint-order:fill markers stroke;stop-color:#000000"
       d="m 172.00785,78.388391 c 10.54716,7.239989 -0.86462,20.673548 -8.79248,13.495504"
       id="path27044"
       sodipodi:nodetypes="cc" />
    <path
       style="fill:none;stroke:#000000;stroke-width:1.80092;stroke-linecap:round;stroke-linejoin:round;stroke-dasharray:none;paint-order:fill markers stroke;stop-color:#000000"
       d="m 96.387466,89.530993 5.970774,4.145986 5.97076,-8.291972 5.97078,4.145986"
       id="path30055"
       sodipodi:nodetypes="cccc" />
    <path
       style="fill:none;stroke:#000000;stroke-width:1.801;stroke-linecap:round;stroke-linejoin:round;paint-order:fill markers stroke;stop-color:#000000;stroke-dasharray:none"
       d="M 99.517472,206.3365 122.58048,183.84557"
       id="path2192"
       sodipodi:nodetypes="cc" />
  </g>
</svg>
