<?xml version="1.0" encoding="UTF-8" standalone="no"?>
<!-- Created with Inkscape (http://www.inkscape.org/) -->

<svg
   width="50mm"
   height="50mm"
   viewBox="0 0 50 50"
   version="1.1"
   id="svg5"
   inkscape:version="1.2.2 (b0a8486541, 2022-12-01)"
   sodipodi:docname="io.svg"
   xmlns:inkscape="http://www.inkscape.org/namespaces/inkscape"
   xmlns:sodipodi="http://sodipodi.sourceforge.net/DTD/sodipodi-0.dtd"
   xmlns="http://www.w3.org/2000/svg"
   xmlns:svg="http://www.w3.org/2000/svg">
  <sodipodi:namedview
     id="namedview7"
     pagecolor="#dce477"
     bordercolor="#eeeeee"
     borderopacity="1"
     inkscape:showpageshadow="0"
     inkscape:pageopacity="0"
     inkscape:pagecheckerboard="0"
     inkscape:deskcolor="#505050"
     inkscape:document-units="mm"
     showgrid="false"
     inkscape:zoom="4.397375"
     inkscape:cx="94.715597"
     inkscape:cy="98.354132"
     inkscape:window-width="1920"
     inkscape:window-height="1015"
     inkscape:window-x="0"
     inkscape:window-y="0"
     inkscape:window-maximized="1"
     inkscape:current-layer="layer1" />
  <defs
     id="defs2" />
  <g
     inkscape:label="Layer 1"
     inkscape:groupmode="layer"
     id="layer1">
    <path
       id="path465"
       style="fill:#000000;stroke:none;stroke-width:0.499999;stroke-linecap:round;paint-order:fill markers stroke;stop-color:#000000"
       d="M 25.803134,13.760934 C 19.426968,13.307472 12.507626,25.735391 15.647165,31.073572 18.786704,36.411753 29.500224,35.612211 32.728809,30.680314 35.957394,25.748417 32.1793,14.214397 25.803134,13.760934 Z m -0.300485,4.662952 c 4.793104,0.96676 7.276826,6.476662 4.251432,10.764981 -3.025394,4.288319 -8.806952,3.711009 -11.229115,-1.029329 -2.422163,-4.740338 2.18458,-10.702413 6.977683,-9.735652 z"
       sodipodi:nodetypes="zzzzzzzz" />
    <path
       id="path2063"
       style="fill:#000000;stroke-width:0.499999;stroke-linecap:round;paint-order:fill markers stroke;stop-color:#000000"
       d="M 5.0927124,34.331238 4.2281657,37.36051 c 2.82863,5.322926 4.6985324,6.114564 7.2884443,8.840804 l 3.247347,0.07596 L 9.0165039,39.30096 C 20.752475,42.842219 32.428179,44.266868 43.908431,38.788847 L 43.77924,34.470764 C 30.732088,40.654953 17.908664,37.655767 5.0927124,34.331238 Z"
       sodipodi:nodetypes="cccccccc" />
  </g>
</svg>
