<?xml version="1.0" encoding="UTF-8" standalone="no"?>
<!-- Created with Inkscape (http://www.inkscape.org/) -->

<svg
   width="50mm"
   height="50mm"
   viewBox="0 0 50 50"
   version="1.1"
   id="svg5"
   inkscape:version="1.2.2 (b0a8486541, 2022-12-01)"
   sodipodi:docname="min.svg"
   xmlns:inkscape="http://www.inkscape.org/namespaces/inkscape"
   xmlns:sodipodi="http://sodipodi.sourceforge.net/DTD/sodipodi-0.dtd"
   xmlns="http://www.w3.org/2000/svg"
   xmlns:svg="http://www.w3.org/2000/svg">
  <sodipodi:namedview
     id="namedview7"
     pagecolor="#dce477"
     bordercolor="#eeeeee"
     borderopacity="1"
     inkscape:showpageshadow="0"
     inkscape:pageopacity="0"
     inkscape:pagecheckerboard="0"
     inkscape:deskcolor="#505050"
     inkscape:document-units="mm"
     showgrid="false"
     inkscape:zoom="6.2188274"
     inkscape:cx="110.22978"
     inkscape:cy="72.762914"
     inkscape:window-width="1920"
     inkscape:window-height="1015"
     inkscape:window-x="0"
     inkscape:window-y="0"
     inkscape:window-maximized="1"
     inkscape:current-layer="layer1" />
  <defs
     id="defs2" />
  <g
     inkscape:label="Layer 1"
     inkscape:groupmode="layer"
     id="layer1">
    <path
       id="path465"
       style="fill:#000000;stroke:none;stroke-width:0.499999;stroke-linecap:round;paint-order:fill markers stroke;stop-color:#000000"
       d="M 25.551132,2.3800958 C 19.174966,1.9266338 12.255624,14.354553 15.395163,19.692734 18.534702,25.030915 29.248222,24.231373 32.476807,19.299476 35.705392,14.367579 31.927298,2.8335588 25.551132,2.3800958 Z m -0.300485,4.662952 c 4.793104,0.96676 7.276826,6.4766622 4.251432,10.7649812 -3.025394,4.288319 -8.806952,3.711009 -11.229115,-1.029329 -2.422163,-4.740338 2.18458,-10.7024132 6.977683,-9.7356522 z"
       sodipodi:nodetypes="zzzzzzzz" />
    <path
       style="fill:#000000;stroke-width:0.499999;stroke-linecap:round;paint-order:fill markers stroke;stop-color:#000000"
       d="m 15.355931,19.405274 c 2.679456,9.117734 4.38184,18.041569 -0.664811,25.62606 l 2.765772,2.866705 c 5.0191,-9.584474 4.76428,-19.935429 1.406152,-29.858945 z"
       id="path391"
       sodipodi:nodetypes="ccccc" />
    <path
       style="fill:#000000;stroke-width:0.499999;stroke-linecap:round;paint-order:fill markers stroke;stop-color:#000000"
       d="M 18.735709,4.0586698 C 6.2595515,14.451765 17.945935,21.655481 15.827292,29.159213 l -5.383578,0.317238 c 4.610702,-8.7126 -7.7395713,-18.49206 5.958024,-27.1125621 z"
       id="path1087"
       sodipodi:nodetypes="ccccc" />
  </g>
</svg>
