<?xml version="1.0" encoding="UTF-8" standalone="no"?>
<!-- Created with Inkscape (http://www.inkscape.org/) -->

<svg
   width="20mm"
   height="20mm"
   viewBox="0 0 20 20"
   version="1.1"
   id="svg1"
   inkscape:version="1.4.2 (ebf0e940d0, 2025-05-08)"
   sodipodi:docname="zewi.svg"
   xmlns:inkscape="http://www.inkscape.org/namespaces/inkscape"
   xmlns:sodipodi="http://sodipodi.sourceforge.net/DTD/sodipodi-0.dtd"
   xmlns="http://www.w3.org/2000/svg"
   xmlns:svg="http://www.w3.org/2000/svg">
  <sodipodi:namedview
     id="namedview1"
     pagecolor="#e4e4e4"
     bordercolor="#eeeeee"
     borderopacity="1"
     inkscape:showpageshadow="0"
     inkscape:pageopacity="0"
     inkscape:pagecheckerboard="0"
     inkscape:deskcolor="#a3a3a3"
     inkscape:document-units="mm"
     inkscape:zoom="7.4835468"
     inkscape:cx="33.00574"
     inkscape:cy="22.649688"
     inkscape:window-width="1920"
     inkscape:window-height="1056"
     inkscape:window-x="0"
     inkscape:window-y="0"
     inkscape:window-maximized="1"
     inkscape:current-layer="layer1"
     showgrid="false" />
  <defs
     id="defs1" />
  <g
     inkscape:label="Layer 1"
     inkscape:groupmode="layer"
     id="layer1">
    <path
       style="color:#000000;fill:#000000;stroke-linejoin:bevel;-inkscape-stroke:none;paint-order:stroke fill markers"
       d="m 133.81836,45.806641 c -1.25071,0.04439 -2.27447,0.407786 -3.00781,1.02539 -0.73335,0.617604 -1.13612,1.462009 -1.26368,2.294922 -0.1293,0.844317 -0.0216,1.688108 0.2793,2.439453 H 121.375 v 2 h 10.43555 l 0.57031,-1.822265 c -0.48194,-0.333437 -0.99002,-1.448643 -0.85742,-2.314454 0.0663,-0.432905 0.24021,-0.78542 0.57617,-1.068359 0.33596,-0.282938 0.87519,-0.524208 1.78906,-0.556641 0.90832,-0.03224 1.45312,0.175243 1.79688,0.4375 0.34375,0.262258 0.53131,0.607953 0.60937,1.044922 0.15613,0.873939 -0.31726,2.025498 -0.95117,2.445313 l 1.10352,1.667969 c 1.44982,-0.960164 2.12011,-2.764808 1.8164,-4.464844 -0.15185,-0.850018 -0.5946,-1.695276 -1.36523,-2.283203 -0.77064,-0.587928 -1.82381,-0.890287 -3.08008,-0.845703 z"
       id="path27-5-2" />
    <path
       style="fill:none;stroke:#000000;stroke-width:2;stroke-linejoin:bevel;paint-order:stroke fill markers"
       d="m 135.89575,52.566893 c 2.08373,-1.37998 2.28678,-5.914765 -2.04239,-5.761126 -4.32917,0.153638 -3.83761,4.519071 -2.04239,5.761126 H 121.375"
       id="path27-5-7"
       sodipodi:nodetypes="czcc" />
    <path
       style="fill:none;stroke:#000000;stroke-width:2;stroke-linejoin:bevel;paint-order:stroke fill markers"
       d="m 135.89575,52.566893 c 2.08373,-1.37998 2.28678,-5.914765 -2.04239,-5.761126 -4.32917,0.153638 -3.83761,4.519071 -2.04239,5.761126 H 121.375"
       id="path27-5-29"
       sodipodi:nodetypes="czcc" />
    <path
       style="fill:none;stroke:#000000;stroke-width:2;paint-order:stroke fill markers"
       d="m 1.8001839,18.96479 8.09375,-5.562499 8.0937501,5.562499"
       id="path32"
       sodipodi:nodetypes="ccc" />
    <path
       style="fill:none;stroke:#000000;stroke-width:2;paint-order:stroke fill markers"
       d="M 10.721221,11.168341 C 5.6752256,5.6524107 14.138251,5.6734246 9.5037422,0.76233374"
       id="path21"
       sodipodi:nodetypes="cc" />
  </g>
</svg>
