<?xml version="1.0" encoding="UTF-8" standalone="no"?>
<!-- Created with Inkscape (http://www.inkscape.org/) -->

<svg
   width="50mm"
   height="50mm"
   viewBox="0 0 50 50"
   version="1.1"
   id="svg5"
   inkscape:version="1.2.2 (b0a8486541, 2022-12-01)"
   sodipodi:docname="buli.svg"
   xmlns:inkscape="http://www.inkscape.org/namespaces/inkscape"
   xmlns:sodipodi="http://sodipodi.sourceforge.net/DTD/sodipodi-0.dtd"
   xmlns="http://www.w3.org/2000/svg"
   xmlns:svg="http://www.w3.org/2000/svg">
  <sodipodi:namedview
     id="namedview7"
     pagecolor="#dce477"
     bordercolor="#eeeeee"
     borderopacity="1"
     inkscape:showpageshadow="0"
     inkscape:pageopacity="0"
     inkscape:pagecheckerboard="0"
     inkscape:deskcolor="#505050"
     inkscape:document-units="mm"
     showgrid="false"
     inkscape:zoom="4.397375"
     inkscape:cx="117.22903"
     inkscape:cy="93.351147"
     inkscape:window-width="1920"
     inkscape:window-height="1015"
     inkscape:window-x="0"
     inkscape:window-y="0"
     inkscape:window-maximized="1"
     inkscape:current-layer="layer1" />
  <defs
     id="defs2" />
  <g
     inkscape:label="Layer 1"
     inkscape:groupmode="layer"
     id="layer1">
    <path
       id="path2063"
       style="fill:#000000;stroke-width:0.499999;stroke-linecap:round;paint-order:fill markers stroke;stop-color:#000000"
       d="M 16.903471,44.451584 13.874199,45.31613 C 10.260467,43.381085 7.6684609,41.085211 4.9422211,38.495299 l 0.01521,-3.714961 6.9763139,5.747454 C 6.1324991,28.79182 5.6762641,17.116116 12.445862,5.6358636 l 4.318083,0.129191 C 8.8126379,18.812207 12.070765,31.635631 16.903471,44.451584 Z"
       sodipodi:nodetypes="cccccccc" />
    <path
       id="path2063-3"
       style="fill:#000000;stroke-width:0.499999;stroke-linecap:round;paint-order:fill markers stroke;stop-color:#000000"
       d="m 35.370998,45.06386 3.029272,0.864546 c 3.613732,-1.935045 6.205738,-4.230919 8.931978,-6.820831 l -0.01521,-3.714961 -6.976314,5.747454 C 46.14197,29.404096 46.598205,17.728392 39.828607,6.2481401 l -4.318083,0.129191 C 43.461831,19.424483 40.203704,32.247907 35.370998,45.06386 Z"
       sodipodi:nodetypes="cccccccc" />
    <path
       id="path465"
       style="fill:#000000;stroke:none;stroke-width:0.499999;stroke-linecap:round;paint-order:fill markers stroke;stop-color:#000000"
       d="M 27.846596,11.135389 C 21.47043,10.681927 14.551088,23.109846 17.690627,28.448027 c 3.139539,5.338181 13.853059,4.538639 17.081644,-0.393258 3.228585,-4.931897 -0.549509,-16.465917 -6.925675,-16.91938 z m -0.300485,4.662952 c 4.793104,0.96676 7.276826,6.476662 4.251432,10.764981 -3.025394,4.288319 -8.806952,3.711009 -11.229115,-1.029329 -2.422163,-4.740338 2.18458,-10.702413 6.977683,-9.735652 z"
       sodipodi:nodetypes="zzzzzzzz" />
  </g>
</svg>
