<?xml version="1.0" encoding="UTF-8" standalone="no"?>
<!-- Created with Inkscape (http://www.inkscape.org/) -->

<svg
   width="50mm"
   height="50mm"
   viewBox="0 0 50 50"
   version="1.1"
   id="svg5"
   inkscape:version="1.2.2 (b0a8486541, 2022-12-01)"
   sodipodi:docname="beba.svg"
   xmlns:inkscape="http://www.inkscape.org/namespaces/inkscape"
   xmlns:sodipodi="http://sodipodi.sourceforge.net/DTD/sodipodi-0.dtd"
   xmlns="http://www.w3.org/2000/svg"
   xmlns:svg="http://www.w3.org/2000/svg">
  <sodipodi:namedview
     id="namedview7"
     pagecolor="#dce477"
     bordercolor="#eeeeee"
     borderopacity="1"
     inkscape:showpageshadow="0"
     inkscape:pageopacity="0"
     inkscape:pagecheckerboard="0"
     inkscape:deskcolor="#505050"
     inkscape:document-units="mm"
     showgrid="false"
     inkscape:zoom="2.8845023"
     inkscape:cx="96.897132"
     inkscape:cy="103.83074"
     inkscape:window-width="1920"
     inkscape:window-height="1015"
     inkscape:window-x="0"
     inkscape:window-y="0"
     inkscape:window-maximized="1"
     inkscape:current-layer="layer1" />
  <defs
     id="defs2" />
  <g
     inkscape:label="Layer 1"
     inkscape:groupmode="layer"
     id="layer1">
    <path
       style="fill:#000000;stroke:none;stroke-width:1.3;stroke-linecap:round;stroke-linejoin:round;paint-order:fill markers stroke;stop-color:#000000"
       d="M 24.46791,45.899822 C 21.802514,37.530327 16.147913,33.313922 10.45381,29.1524 L 9.0244451,24.683691 C 15.164241,29.013852 21.9926,29.857739 26.757825,41.1475 28.762001,33.238987 34.620481,29.393125 41.176706,26.282724 l 0.625691,6.514018 c -4.727595,-0.18755 -9.8516,7.255961 -12.78825,11.995787 -2.208686,1.357382 -2.941675,-0.128423 -4.546237,1.107293 z"
       id="path1125"
       sodipodi:nodetypes="cccccccc" />
    <path
       id="path465"
       style="fill:#000000;stroke:none;stroke-width:0.499999;stroke-linecap:round;paint-order:fill markers stroke;stop-color:#000000"
       d="m 27.984182,10.640104 c -6.376166,-0.453462 -13.295508,11.974457 -10.155969,17.312638 3.139539,5.338181 13.853059,4.538639 17.081644,-0.393258 3.228585,-4.931897 -0.549509,-16.465917 -6.925675,-16.91938 z m -0.300485,4.662952 c 4.793104,0.96676 7.276826,6.476662 4.251432,10.764981 -3.025394,4.288319 -8.806952,3.711009 -11.229115,-1.029329 -2.422163,-4.740338 2.18458,-10.702413 6.977683,-9.735652 z"
       sodipodi:nodetypes="zzzzzzzz" />
  </g>
</svg>
