<?xml version="1.0" encoding="UTF-8" standalone="no"?>
<!-- Created with Inkscape (http://www.inkscape.org/) -->

<svg
   width="50mm"
   height="50mm"
   viewBox="0 0 50 50"
   version="1.1"
   id="svg5"
   inkscape:version="1.2.2 (b0a8486541, 2022-12-01)"
   sodipodi:docname="iani.svg"
   xmlns:inkscape="http://www.inkscape.org/namespaces/inkscape"
   xmlns:sodipodi="http://sodipodi.sourceforge.net/DTD/sodipodi-0.dtd"
   xmlns="http://www.w3.org/2000/svg"
   xmlns:svg="http://www.w3.org/2000/svg">
  <sodipodi:namedview
     id="namedview7"
     pagecolor="#dce477"
     bordercolor="#eeeeee"
     borderopacity="1"
     inkscape:showpageshadow="0"
     inkscape:pageopacity="0"
     inkscape:pagecheckerboard="0"
     inkscape:deskcolor="#505050"
     inkscape:document-units="mm"
     showgrid="false"
     inkscape:zoom="2.7013037"
     inkscape:cx="-30.170617"
     inkscape:cy="77.555145"
     inkscape:window-width="1920"
     inkscape:window-height="1015"
     inkscape:window-x="0"
     inkscape:window-y="0"
     inkscape:window-maximized="1"
     inkscape:current-layer="layer1" />
  <defs
     id="defs2" />
  <g
     inkscape:label="Layer 1"
     inkscape:groupmode="layer"
     id="layer1">
    <path
       id="path346"
       style="fill:#000000;stroke-width:0.653029;stroke-linecap:round;paint-order:fill markers stroke;stop-color:#000000"
       d="m 10.899092,8.178014 c -2.3811956,0.04878 -4.1725566,4.847047 -3.0637006,6.521741 1.135467,1.714886 3.9620276,1.622003 5.2225176,0.06171 1.26049,-1.560298 0.479939,-6.390053 -1.986028,-6.578195 -0.0578,-0.0044 -0.115645,-0.0065 -0.172789,-0.0052 z m 0.750136,5.275816 c -0.333775,0.521562 -1.179393,0.597486 -1.58563,0.115533 -0.4062376,-0.481952 -0.2316296,-2.708271 0.738384,-2.778502 0.970014,-0.07023 1.426175,1.605889 0.847246,2.662969 z"
       sodipodi:nodetypes="cssssccszc" />
    <path
       id="path346-3"
       style="fill:#000000;stroke-width:0.653029;stroke-linecap:round;paint-order:fill markers stroke;stop-color:#000000"
       d="m 37.794528,34.352981 c -2.381195,0.04878 -4.172555,4.847047 -3.0637,6.521741 1.135466,1.714887 3.962027,1.622004 5.222517,0.06171 1.260489,-1.560298 0.479939,-6.390053 -1.986027,-6.578195 -0.0578,-0.0044 -0.115645,-0.0065 -0.17279,-0.0052 z m 0.750137,5.275816 c -0.333776,0.521562 -1.179393,0.597486 -1.585631,0.115533 -0.406238,-0.481952 -0.23163,-2.708271 0.738384,-2.778502 0.970014,-0.07023 1.426175,1.605889 0.847247,2.662969 z"
       sodipodi:nodetypes="cssssccszc" />
  </g>
</svg>
