<?xml version="1.0" encoding="UTF-8" standalone="no"?>
<!-- Created with Inkscape (http://www.inkscape.org/) -->

<svg
   width="100"
   height="100"
   viewBox="0 0 26.458333 26.458333"
   version="1.1"
   id="svg1"
   inkscape:version="1.4.2 (ebf0e940d0, 2025-05-08)"
   sodipodi:docname="dugibelan.svg"
   xmlns:inkscape="http://www.inkscape.org/namespaces/inkscape"
   xmlns:sodipodi="http://sodipodi.sourceforge.net/DTD/sodipodi-0.dtd"
   xmlns="http://www.w3.org/2000/svg"
   xmlns:svg="http://www.w3.org/2000/svg">
  <sodipodi:namedview
     id="namedview1"
     pagecolor="#ffffff"
     bordercolor="#000000"
     borderopacity="0.25"
     inkscape:showpageshadow="2"
     inkscape:pageopacity="0.0"
     inkscape:pagecheckerboard="0"
     inkscape:deskcolor="#d1d1d1"
     inkscape:document-units="mm"
     inkscape:zoom="4.28"
     inkscape:cx="33.995327"
     inkscape:cy="27.570093"
     inkscape:window-width="1920"
     inkscape:window-height="1056"
     inkscape:window-x="1920"
     inkscape:window-y="0"
     inkscape:window-maximized="1"
     inkscape:current-layer="layer1"
     showgrid="true">
    <inkscape:grid
       id="grid1"
       units="mm"
       originx="0"
       originy="0"
       spacingx="0.99999999"
       spacingy="0.99999999"
       empcolor="#0099e5"
       empopacity="0.30196078"
       color="#0099e5"
       opacity="0.14901961"
       empspacing="5"
       enabled="true"
       visible="true" />
  </sodipodi:namedview>
  <defs
     id="defs1" />
  <g
     inkscape:label="Layer 1"
     inkscape:groupmode="layer"
     id="layer1">
    <rect
       style="fill:#bcd35f;fill-opacity:1;stroke:none;stroke-width:0.799999;stroke-linecap:square;stroke-linejoin:round;paint-order:fill markers stroke"
       id="rect19"
       width="26.458332"
       height="26.458332"
       x="0"
       y="0" />
    <path
       sodipodi:type="star"
       style="fill:#a7ac93;fill-opacity:1;stroke:none;stroke-width:2.02507;stroke-linecap:square;stroke-linejoin:round;paint-order:fill markers stroke"
       id="path1"
       inkscape:flatsided="true"
       sodipodi:sides="3"
       sodipodi:cx="0.98909658"
       sodipodi:cy="10.13824"
       sodipodi:r1="29.635847"
       sodipodi:r2="14.817924"
       sodipodi:arg1="0.52432071"
       sodipodi:arg2="1.5715183"
       inkscape:rounded="0"
       inkscape:randomized="0"
       d="M 26.643789,24.974688 -24.686991,24.937631 1.0104917,-19.4976 Z"
       inkscape:transform-center-x="0.0054977145"
       inkscape:transform-center-y="-2.2472823"
       transform="matrix(0.51387012,0,0,0.30369926,33.894646,-11.831694)" />
    <rect
       style="fill:#000000;fill-opacity:1;stroke-width:0.799999;stroke-linecap:square;stroke-linejoin:round;paint-order:fill markers stroke"
       id="rect5"
       width="43.5"
       height="3"
       x="-8.7440138"
       y="1.9844112"
       transform="rotate(0.06869189)"
       inkscape:transform-center-x="-19.056182"
       inkscape:transform-center-y="-1.5648454" />
    <rect
       style="fill:#000000;fill-opacity:1;stroke-width:0.800101;stroke-linecap:square;stroke-linejoin:round;paint-order:fill markers stroke"
       id="rect5-5"
       width="43.508354"
       height="3.0001898"
       x="4.6259694"
       y="11.755917"
       transform="matrix(0.00130717,0.99999915,0.99971431,-0.02390203,0,0)"
       inkscape:transform-center-x="1.5624247"
       inkscape:transform-center-y="19.095886" />
    <path
       id="path5"
       style="fill:#000000;fill-opacity:1;stroke-width:0.799999;stroke-linecap:square;stroke-linejoin:round;paint-order:fill markers stroke"
       d="M 0.22007397,14.000179 A 5,4 0 0 0 2.72018,17.46405 a 5,4 0 0 0 4.9996948,0 5,4 0 0 0 2.5001032,-3.463871 H 7.6697487 a 2.75,2.2 0 0 1 -1.0748698,0.904854 2.75,2.2 0 0 1 -2.749703,0 2.75,2.2 0 0 1 -1.074353,-0.904854 z" />
    <path
       id="path5-6"
       style="fill:#000000;fill-opacity:1;stroke-width:0.799999;stroke-linecap:square;stroke-linejoin:round;paint-order:fill markers stroke"
       d="m 16.220072,14 a 5,4 0 0 0 2.500106,3.463871 5,4 0 0 0 4.999695,0 A 5,4 0 0 0 26.219978,14 h -2.550232 a 2.75,2.2 0 0 1 -1.074869,0.904854 2.75,2.2 0 0 1 -2.749703,0 A 2.75,2.2 0 0 1 18.770821,14 Z" />
    <path
       style="fill:#ffffff;fill-opacity:1;stroke-width:0.799999;stroke-linecap:square;stroke-linejoin:round;paint-order:fill markers stroke"
       id="path6"
       d="m 5.0000001,6.0000001 c -2,0 -3.9490926,4.9999999 -1,4.9999999 2,0 1,2 0,3 3,0 4.4074305,-5.1610954 2,-4.9999999 -1.9955373,0.1335333 -2,-2 -1,-3 z"
       sodipodi:nodetypes="cscsc" />
    <path
       style="fill:#ffffff;fill-opacity:1;stroke-width:0.799999;stroke-linecap:square;stroke-linejoin:round;paint-order:fill markers stroke"
       id="path6-7"
       d="M 21,6.0000001 C 19,6.0000001 17.050908,11 20,11 c 2,0 1,2 0,3 3,0 4.407431,-5.1610954 2,-4.9999999 -1.995537,0.1335333 -2,-2 -1,-3 z"
       sodipodi:nodetypes="cscsc" />
  </g>
  <g
     inkscape:groupmode="layer"
     id="layer2"
     inkscape:label="Layer 2"
     sodipodi:insensitive="true">
    <rect
       style="fill:#a7ac93;fill-opacity:1;stroke:none;stroke-width:0.799998;stroke-linecap:square;stroke-linejoin:round;paint-order:fill markers stroke"
       id="rect1"
       width="5.000001"
       height="5"
       x="35"
       y="5" />
    <rect
       style="fill:#bcd35f;fill-opacity:1;stroke:none;stroke-width:0.8;stroke-linecap:square;stroke-linejoin:round;paint-order:fill markers stroke"
       id="rect2"
       width="5.0000014"
       height="5"
       x="35"
       y="10" />
    <rect
       style="fill:#000000;fill-opacity:1;stroke:none;stroke-width:0.799999;stroke-linecap:square;stroke-linejoin:round;paint-order:fill markers stroke"
       id="rect3"
       width="5.0000014"
       height="5"
       x="35"
       y="15" />
    <rect
       style="fill:#ffffff;fill-opacity:1;stroke:none;stroke-width:0.799996;stroke-linecap:square;stroke-linejoin:round;paint-order:fill markers stroke"
       id="rect4"
       width="5.0000005"
       height="5.0000005"
       x="35"
       y="20" />
  </g>
</svg>
