<?xml version="1.0" encoding="UTF-8" standalone="no"?>
<!-- Created with Inkscape (http://www.inkscape.org/) -->

<svg
   width="100"
   height="100"
   viewBox="0 0 26.458333 26.458333"
   version="1.1"
   id="svg1"
   inkscape:version="1.4.2 (ebf0e940d0, 2025-05-08)"
   sodipodi:docname="bena.svg"
   xmlns:inkscape="http://www.inkscape.org/namespaces/inkscape"
   xmlns:sodipodi="http://sodipodi.sourceforge.net/DTD/sodipodi-0.dtd"
   xmlns="http://www.w3.org/2000/svg"
   xmlns:svg="http://www.w3.org/2000/svg">
  <sodipodi:namedview
     id="namedview1"
     pagecolor="#ffffff"
     bordercolor="#000000"
     borderopacity="0.25"
     inkscape:showpageshadow="2"
     inkscape:pageopacity="0.0"
     inkscape:pagecheckerboard="0"
     inkscape:deskcolor="#d1d1d1"
     inkscape:document-units="mm"
     inkscape:zoom="3.026417"
     inkscape:cx="26.929534"
     inkscape:cy="50.885254"
     inkscape:window-width="1920"
     inkscape:window-height="1056"
     inkscape:window-x="1920"
     inkscape:window-y="0"
     inkscape:window-maximized="1"
     inkscape:current-layer="layer1"
     showgrid="true">
    <inkscape:grid
       id="grid1"
       units="mm"
       originx="0"
       originy="0"
       spacingx="0.99999999"
       spacingy="0.99999999"
       empcolor="#0099e5"
       empopacity="0.30196078"
       color="#0099e5"
       opacity="0.14901961"
       empspacing="5"
       enabled="true"
       visible="true" />
  </sodipodi:namedview>
  <defs
     id="defs1" />
  <g
     inkscape:label="Layer 1"
     inkscape:groupmode="layer"
     id="layer1">
    <path
       id="rect19"
       style="fill:#bcd35f;fill-opacity:1;stroke:none;stroke-width:0.799999;stroke-linecap:square;stroke-linejoin:round;paint-order:fill markers stroke"
       d="M 0 0 L 0 19.854085 L 0 26.458333 L 4.9841919 26.458333 L 26.458333 26.458333 L 26.458333 8.9720622 L 26.458333 0 L 24.381458 0 L 0 0 z " />
    <path
       style="fill:#ffffff;fill-opacity:1;stroke-width:0.799998;stroke-linecap:square;stroke-linejoin:round;paint-order:fill markers stroke"
       id="path8"
       d="m 15.841305,3.835101 c -2.999192,-0.8769814 -3.706311,3.0629535 -4.691394,5.0255655 -1.3591773,2.7079295 1.057151,5.6108575 3.853156,6.0826945 3.709633,0.626017 7.66811,-4.07771 5.26155,-7.1781636 -1.33175,-1.7157383 -6.128252,-5.5962934 -7.533914,-2.3668742 -0.965708,2.218652 -2.9936317,5.2458828 -1.055388,7.2666148 1.858078,1.750088 4.635329,1.563072 5.454773,-1.115539 0,0 -2.9098,-7.8745377 -2.779223,-3.6815632 -0.570455,1.6882385 -4.6196041,3.5294312 -1.563801,4.6810952 1.924649,1.907379 2.775578,-0.654945 2.801699,-2.46498 0,0 3.385536,0.388365 -2.257309,3.255077 1.031425,1.383061 -0.17446,-2.076959 0.484435,-2.957691 C 14.14611,7.9490011 16.637527,6.6910583 17.640005,5.0970419 17.129371,4.5517717 16.268871,4.5002941 15.841305,3.835101 Z"
       sodipodi:nodetypes="cssssccccccccc" />
    <path
       style="fill:#000000;fill-opacity:1;stroke-width:0.799998;stroke-linecap:square;stroke-linejoin:round;paint-order:fill markers stroke"
       id="path9"
       d="m 26.528482,12.826425 c -1.102185,0.586602 -1.921359,1.55045 -3.075033,2.09492 -3.497396,1.650579 -7.435658,2.056621 -11.232547,1.821839 C 9.7112743,16.588 5.807482,13.995009 3.9243187,12.563938 3.0208112,11.602579 0.44392627,11.714276 1.0410606,13.486582 c 1.0047379,2.082296 3.4663329,3.437869 3.695558,5.839347 0.113242,1.186378 -0.2557779,2.671584 1.1034293,3.277262 1.1362252,0.584727 2.4435378,1.843822 3.7636272,1.322301 0.8392139,-1.046316 0.2298685,-2.584947 -0.2529804,-3.668533 -0.7571403,-1.69914 -1.8234179,-2.68488 -2.7807509,-4.474158 -0.050797,1.969212 0.7827681,1.212738 3.6574852,2.511807 2.935951,1.326741 6.275775,1.364802 9.414678,0.96335 2.734982,-0.349793 5.505459,-1.021314 7.838698,-2.531856 0.834089,-0.539989 2.110044,-0.813722 2.560591,-1.669849 -0.669425,-0.572239 -1.501887,-0.958965 -2.242811,-1.451512 z"
       sodipodi:nodetypes="cssccsccscsssccc" />
  </g>
  <g
     inkscape:groupmode="layer"
     id="layer2"
     inkscape:label="Layer 2"
     sodipodi:insensitive="true">
    <rect
       style="fill:#a7ac93;fill-opacity:1;stroke:none;stroke-width:0.799998;stroke-linecap:square;stroke-linejoin:round;paint-order:fill markers stroke"
       id="rect1"
       width="5.000001"
       height="5"
       x="35"
       y="5" />
    <rect
       style="fill:#bcd35f;fill-opacity:1;stroke:none;stroke-width:0.8;stroke-linecap:square;stroke-linejoin:round;paint-order:fill markers stroke"
       id="rect2"
       width="5.0000014"
       height="5"
       x="35"
       y="10" />
    <rect
       style="fill:#000000;fill-opacity:1;stroke:none;stroke-width:0.799999;stroke-linecap:square;stroke-linejoin:round;paint-order:fill markers stroke"
       id="rect3"
       width="5.0000014"
       height="5"
       x="35"
       y="15" />
    <rect
       style="fill:#ffffff;fill-opacity:1;stroke:none;stroke-width:0.799996;stroke-linecap:square;stroke-linejoin:round;paint-order:fill markers stroke"
       id="rect4"
       width="5.0000005"
       height="5.0000005"
       x="35"
       y="20" />
  </g>
</svg>
