<?xml version="1.0" encoding="UTF-8" standalone="no"?>
<!-- Created with Inkscape (http://www.inkscape.org/) -->

<svg
   width="100"
   height="100"
   viewBox="0 0 26.458333 26.458333"
   version="1.1"
   id="svg1"
   inkscape:version="1.4.2 (ebf0e940d0, 2025-05-08)"
   sodipodi:docname="gedin.svg"
   xmlns:inkscape="http://www.inkscape.org/namespaces/inkscape"
   xmlns:sodipodi="http://sodipodi.sourceforge.net/DTD/sodipodi-0.dtd"
   xmlns="http://www.w3.org/2000/svg"
   xmlns:svg="http://www.w3.org/2000/svg">
  <sodipodi:namedview
     id="namedview1"
     pagecolor="#a7ac93"
     bordercolor="#000000"
     borderopacity="0.25"
     inkscape:showpageshadow="2"
     inkscape:pageopacity="0.0"
     inkscape:pagecheckerboard="0"
     inkscape:deskcolor="#d1d1d1"
     inkscape:document-units="mm"
     inkscape:zoom="6.052834"
     inkscape:cx="40.559513"
     inkscape:cy="48.7375"
     inkscape:window-width="1920"
     inkscape:window-height="1056"
     inkscape:window-x="1920"
     inkscape:window-y="0"
     inkscape:window-maximized="1"
     inkscape:current-layer="layer1"
     showgrid="true">
    <inkscape:grid
       id="grid1"
       units="mm"
       originx="0"
       originy="0"
       spacingx="0.99999999"
       spacingy="0.99999999"
       empcolor="#0099e5"
       empopacity="0.30196078"
       color="#0099e5"
       opacity="0.14901961"
       empspacing="5"
       enabled="true"
       visible="true" />
  </sodipodi:namedview>
  <defs
     id="defs1" />
  <g
     inkscape:label="Layer 1"
     inkscape:groupmode="layer"
     id="layer1">
    <rect
       style="fill:#000000;fill-opacity:1;stroke:none;stroke-width:0.799999;stroke-linecap:square;stroke-linejoin:round;paint-order:fill markers stroke"
       id="rect19"
       width="26.458332"
       height="26.458332"
       x="1.2715658e-06"
       y="1.2715658e-06" />
    <path
       style="fill:#a7ac93;fill-opacity:1;stroke-width:0.799999;stroke-linecap:square;stroke-linejoin:round;paint-order:fill markers stroke"
       d="M 0,0.03325738 V 6.4915857 h 15 l 5.457359,9.9999973 6.000974,-9.5191626 -1e-6,-6.93916302 z"
       id="path5"
       sodipodi:nodetypes="ccccccc" />
    <path
       style="fill:#ffffff;fill-opacity:1;stroke:none;stroke-width:0.799999;stroke-linecap:square;stroke-linejoin:round;paint-order:fill markers stroke"
       id="path17"
       d="m -0.7438561,5.6126456 c 0,0 1.9460164,0.462337 2.9969181,0.547193 4.9449704,0.52726 9.909286,-0.0644 14.837937,-0.476328 0.948394,2.649224 2.792866,5.9137374 3.786502,8.5638934 0,0 2.669252,-5.1350064 4.122499,-6.3961184 1.586974,-1.377159 2.577299,-2.351381 4.598972,-3 -0.782869,0.587536 -0.598972,1.358605 -1.554231,1.915162 -2.678956,1.560824 -3.842642,4.8163494 -5.000051,7.6278894 -0.440144,1.069185 -0.737278,2.206737 -0.843707,3.357838 -0.96831,0.700911 -1.852839,2.38839 -2.74972,2.660324 C 19.2355,17.749519 18.113309,14.708863 16.869969,12.321978 16.109487,10.862052 15.136553,9.5747633 14.251683,8.2098246 12.17922,7.9988026 10.086164,8.1461546 8.0040066,8.0184666 4.5458621,7.8064016 1.052663,7.4793686 -2.3816473,7.9084096 l -0.4836386,0.06042 c -0.7267171,0.05238 0.3110652,-0.640493 0.5604611,-0.876847 0.5256172,-0.480373 1.0157547,-1.036999 1.5609687,-1.479337 z"
       sodipodi:nodetypes="scccscssccscsscss" />
  </g>
  <g
     inkscape:groupmode="layer"
     id="layer2"
     inkscape:label="Layer 2"
     sodipodi:insensitive="true">
    <rect
       style="fill:#a7ac93;fill-opacity:1;stroke:none;stroke-width:0.799998;stroke-linecap:square;stroke-linejoin:round;paint-order:fill markers stroke"
       id="rect1"
       width="5.000001"
       height="5"
       x="35"
       y="5" />
    <rect
       style="fill:#bcd35f;fill-opacity:1;stroke:none;stroke-width:0.8;stroke-linecap:square;stroke-linejoin:round;paint-order:fill markers stroke"
       id="rect2"
       width="5.0000014"
       height="5"
       x="35"
       y="10" />
    <rect
       style="fill:#000000;fill-opacity:1;stroke:none;stroke-width:0.799999;stroke-linecap:square;stroke-linejoin:round;paint-order:fill markers stroke"
       id="rect3"
       width="5.0000014"
       height="5"
       x="35"
       y="15" />
    <rect
       style="fill:#ffffff;fill-opacity:1;stroke:none;stroke-width:0.799996;stroke-linecap:square;stroke-linejoin:round;paint-order:fill markers stroke"
       id="rect4"
       width="5.0000005"
       height="5.0000005"
       x="35"
       y="20" />
  </g>
</svg>
