<?xml version="1.0" encoding="UTF-8" standalone="no"?>
<!-- Created with Inkscape (http://www.inkscape.org/) -->

<svg
   width="100"
   height="100"
   viewBox="0 0 26.458333 26.458333"
   version="1.1"
   id="svg1"
   inkscape:version="1.4.2 (ebf0e940d0, 2025-05-08)"
   sodipodi:docname="elena.svg"
   xmlns:inkscape="http://www.inkscape.org/namespaces/inkscape"
   xmlns:sodipodi="http://sodipodi.sourceforge.net/DTD/sodipodi-0.dtd"
   xmlns="http://www.w3.org/2000/svg"
   xmlns:svg="http://www.w3.org/2000/svg">
  <sodipodi:namedview
     id="namedview1"
     pagecolor="#ffffff"
     bordercolor="#000000"
     borderopacity="0.25"
     inkscape:showpageshadow="2"
     inkscape:pageopacity="0.0"
     inkscape:pagecheckerboard="0"
     inkscape:deskcolor="#d1d1d1"
     inkscape:document-units="mm"
     inkscape:zoom="4.28"
     inkscape:cx="49.883178"
     inkscape:cy="37.850467"
     inkscape:window-width="1920"
     inkscape:window-height="1056"
     inkscape:window-x="1920"
     inkscape:window-y="0"
     inkscape:window-maximized="1"
     inkscape:current-layer="layer1"
     showgrid="true">
    <inkscape:grid
       id="grid1"
       units="mm"
       originx="0"
       originy="0"
       spacingx="0.99999999"
       spacingy="0.99999999"
       empcolor="#0099e5"
       empopacity="0.30196078"
       color="#0099e5"
       opacity="0.14901961"
       empspacing="5"
       enabled="true"
       visible="true" />
  </sodipodi:namedview>
  <defs
     id="defs1" />
  <g
     inkscape:label="Layer 1"
     inkscape:groupmode="layer"
     id="layer1">
    <rect
       style="fill:#ffffff;fill-opacity:1;stroke:none;stroke-width:0.799999;stroke-linecap:square;stroke-linejoin:round;paint-order:fill markers stroke"
       id="rect19"
       width="26.458332"
       height="26.458332"
       x="0"
       y="0" />
    <path
       sodipodi:type="star"
       style="fill:#a7ac93;fill-opacity:1;stroke:none;stroke-width:2.02507;stroke-linecap:square;stroke-linejoin:round;paint-order:fill markers stroke"
       id="path1"
       inkscape:flatsided="true"
       sodipodi:sides="3"
       sodipodi:cx="0.98909658"
       sodipodi:cy="10.13824"
       sodipodi:r1="29.635847"
       sodipodi:r2="14.817924"
       sodipodi:arg1="0.52432071"
       sodipodi:arg2="1.5715183"
       inkscape:rounded="0"
       inkscape:randomized="0"
       d="M 26.643789,24.974688 -24.686991,24.937631 1.0104917,-19.4976 Z"
       inkscape:transform-center-x="0.0054977145"
       inkscape:transform-center-y="-2.2472823"
       transform="matrix(0.51387012,0,0,0.30369926,12.766886,18.873539)" />
    <path
       style="fill:#1a1a1a;fill-opacity:1;stroke:none;stroke-width:0.799999;stroke-linecap:square;stroke-linejoin:round;paint-order:fill markers stroke"
       id="path4"
       d="m -0.33217625,27.891755 c 0.0331511,-0.0448 0.0644654,-0.09102 0.0994557,-0.134393 C 0.05108095,27.405527 0.36895013,27.079014 0.67858586,26.75056 1.2923797,26.099463 1.1905781,26.209806 1.8568183,25.524852 2.3484727,24.961731 2.8993927,24.454578 3.4041878,23.904012 3.7058684,23.574977 3.9859835,23.226645 4.2862887,22.896355 5.1755774,21.918272 5.3073509,21.834 6.2171736,20.885673 6.5355031,20.553871 6.8471573,20.215729 7.1621488,19.880756 7.777443,19.267214 8.3682163,18.629783 8.9776393,18.010541 9.2591265,17.724519 9.5482174,17.446058 9.8304133,17.160735 10.099336,16.888832 10.361227,16.61002 10.63095,16.33891 10.881647,16.086925 11.715499,15.276954 12,15 c 0.414075,-0.427956 0.851816,-0.831168 1.262654,-1.262209 0.06491,-0.0681 0.297822,-0.302098 0.357269,-0.417675 0.02046,-0.03977 0.01882,-0.08743 0.02822,-0.131152 -0.510855,-0.210781 -1.007025,-0.461437 -1.532566,-0.632342 -0.05936,-0.01931 -0.112917,0.0533 -0.16995,0.07868 -0.228682,0.101778 -0.152189,0.06035 -0.38311,0.167719 -0.0598,0.02781 -0.122814,0.05029 -0.178013,0.08639 -0.04153,0.02716 -0.0727,0.06757 -0.109052,0.101352 0.121657,0.30841 0.01655,0.123723 0.455519,0.445953 0,0 0.0651,0.02645 0.0651,0.02645 v 0 c 0.623314,0.131458 0.3553,0.114357 0.79776,0.112652 0.05213,-0.02185 0.10538,-0.04117 0.156376,-0.06553 0.198731,-0.09494 0.1231,-0.08783 0.349889,-0.159074 0.06857,-0.02155 0.138,-0.04323 0.209408,-0.05141 0.466113,-0.0534 1.802809,0.710441 -1.154591,-0.56566 0.0235,0.02222 0.06398,0.03499 0.0705,0.06666 0.03039,0.147512 -0.09849,0.353517 -0.1566,0.454985 -0.278298,0.485984 -0.626997,0.930247 -0.960335,1.378073 -0.170294,0.220872 -0.335122,0.446071 -0.510885,0.662617 -0.5983584,0.737197 -0.7509411,0.871227 -1.4101107,1.597911 -0.264074,0.291121 -0.5237312,0.586235 -0.7887021,0.876539 -2.7107777,2.969946 1.0181317,-1.14813 -1.738749,1.901974 -0.3174801,0.333813 -0.6361627,0.666489 -0.9524417,1.001441 -0.7663506,0.811596 -1.1274722,1.227907 -1.9372501,2.007402 -0.3355739,0.323025 -0.6885878,0.627465 -1.0289652,0.945424 -1.3768029,1.286122 -0.3121216,0.352217 -1.7155997,1.546679 -0.63788557,0.523139 -1.27406561,1.042675 -1.94722795,1.520239 -0.21503575,0.152554 -0.47288755,0.329298 -0.70586565,0.46476 -0.05782,0.03362 -0.1188574,0.06138 -0.1782877,0.09205 z" />
    <path
       style="fill:#1a1a1a;fill-opacity:1;stroke:none;stroke-width:0.799996;stroke-linecap:square;stroke-linejoin:round;paint-order:fill markers stroke"
       id="path5"
       d="m 27.263728,27.160611 c -0.426604,-0.560534 -0.845006,-1.126109 -1.279812,-1.681602 -0.04828,-0.06167 -0.111965,-0.112914 -0.168623,-0.168873 -0.284432,-0.280849 -0.334904,-0.329213 -0.674822,-0.633039 -1.301645,-1.163433 0.04626,0.07218 -1.48877,-1.349745 C 21.525302,21.359511 19.403823,19.387067 17.353037,17.360773 16.897428,16.910607 16.451011,16.453591 16,16 14.325306,14.250779 15.139813,15.114753 13.537748,13.390562 12.398388,12.164352 12.267535,12.044225 11.173921,10.783623 10.296884,9.7726675 9.95863,9.3475908 9.1262021,8.3341936 8.8305628,7.9525616 8.5242913,7.5773569 8.2392843,7.1892973 8.1924629,7.1255452 8.172965,7.0476345 8.132062,6.9805959 7.928744,6.6473595 7.7024695,6.3260668 7.5068781,5.9888876 7.1582744,5.3879315 6.9052153,4.8665495 6.6822389,4.2165291 6.5996603,3.9757942 6.5461045,3.7254089 6.4780378,3.4798478 6.4440087,3.2722017 6.3997715,3.0668001 6.3759508,2.8569093 6.3390415,2.5316927 6.3479221,2.2962125 6.3683336,1.9714425 6.3841736,1.7194489 6.4142406,1.6509445 6.3832036,1.4121516 6.3728796,1.3327017 6.3480346,1.2568296 6.3304506,1.1791685 6.0223582,0.70611278 6.1695601,0.92463961 5.8915696,0.52207596 c 0,0 -0.03896,-0.0549587 -0.03896,-0.0549587 v 0 C 5.466598,0.14611059 5.6690355,0.29380506 5.2469111,0.0225237 5.2071301,0.0461092 5.1531621,0.0586047 5.1275605,0.0932903 5.02211,0.23616146 5.0368845,0.49544484 5.0397505,0.6190129 c 0.014082,0.6071816 0.1479963,1.1915305 0.3025878,1.7654983 0.2523329,0.740667 0.3272657,1.0344342 0.6865124,1.7594657 0.915089,1.8468306 2.2823967,3.4584292 3.5521241,5.1082163 2.1458052,2.5134318 4.3475492,4.9922418 6.7222712,7.3457868 1.101584,1.092445 1.612482,1.604705 2.735122,2.694966 0.454752,0.441635 0.915912,0.878387 1.370767,1.319943 1.277308,1.239964 2.530478,2.497743 3.775432,3.761838 0.73799,0.751556 1.473291,1.504717 2.176626,2.281136 0.100376,0.110814 0.197954,0.223561 0.293851,0.337385 0.06427,0.07629 0.246042,0.312192 0.186593,0.232872 -0.359675,-0.479899 -0.724886,-0.956456 -1.087327,-1.434683 z" />
  </g>
  <g
     inkscape:groupmode="layer"
     id="layer2"
     inkscape:label="Layer 2"
     sodipodi:insensitive="true">
    <rect
       style="fill:#a7ac93;fill-opacity:1;stroke:none;stroke-width:0.799998;stroke-linecap:square;stroke-linejoin:round;paint-order:fill markers stroke"
       id="rect1"
       width="5.000001"
       height="5"
       x="35"
       y="5" />
    <rect
       style="fill:#bcd35f;fill-opacity:1;stroke:none;stroke-width:0.8;stroke-linecap:square;stroke-linejoin:round;paint-order:fill markers stroke"
       id="rect2"
       width="5.0000014"
       height="5"
       x="35"
       y="10" />
    <rect
       style="fill:#000000;fill-opacity:1;stroke:none;stroke-width:0.799999;stroke-linecap:square;stroke-linejoin:round;paint-order:fill markers stroke"
       id="rect3"
       width="5.0000014"
       height="5"
       x="35"
       y="15" />
    <rect
       style="fill:#ffffff;fill-opacity:1;stroke:none;stroke-width:0.799996;stroke-linecap:square;stroke-linejoin:round;paint-order:fill markers stroke"
       id="rect4"
       width="5.0000005"
       height="5.0000005"
       x="35"
       y="20" />
  </g>
</svg>
