<?xml version="1.0" encoding="UTF-8" standalone="no"?>
<!-- Created with Inkscape (http://www.inkscape.org/) -->

<svg
   width="210mm"
   height="297mm"
   viewBox="0 0 210 297"
   version="1.1"
   id="svg1"
   inkscape:version="1.3.2 (091e20ef0f, 2023-11-25, custom)"
   sodipodi:docname="dugiland.svg"
   xmlns:inkscape="http://www.inkscape.org/namespaces/inkscape"
   xmlns:sodipodi="http://sodipodi.sourceforge.net/DTD/sodipodi-0.dtd"
   xmlns="http://www.w3.org/2000/svg"
   xmlns:svg="http://www.w3.org/2000/svg">
  <sodipodi:namedview
     id="namedview1"
     pagecolor="#83bad1"
     bordercolor="#eeeeee"
     borderopacity="1"
     inkscape:showpageshadow="0"
     inkscape:pageopacity="0"
     inkscape:pagecheckerboard="0"
     inkscape:deskcolor="#d1d1d1"
     inkscape:document-units="mm"
     inkscape:zoom="0.57865426"
     inkscape:cx="365.50323"
     inkscape:cy="573.74502"
     inkscape:window-width="1920"
     inkscape:window-height="1015"
     inkscape:window-x="0"
     inkscape:window-y="0"
     inkscape:window-maximized="1"
     inkscape:current-layer="layer1"
     showgrid="false" />
  <defs
     id="defs1" />
  <g
     inkscape:label="Layer 1"
     inkscape:groupmode="layer"
     id="layer1">
    <path
       style="fill:#49e900;stroke:#49e900;stroke-width:0.499999;stroke-linecap:square;paint-order:fill markers stroke"
       d="M 38.746908,48.271268 C 49.227331,32.09702 75.695701,29.583399 94.601312,33.328189 c 11.064018,2.191542 15.729218,22.203635 26.885598,20.545155 6.64988,-0.988555 5.41493,-14.185393 11.77023,-16.378203 14.51736,-5.00902 34.25452,1.202046 44.23683,12.872413 10.0631,11.764819 11.85246,31.772158 5.90853,46.067146 -2.33212,5.60868 -10.35546,6.61558 -14.4501,11.10223 -6.5831,7.21335 -6.19599,22.34197 -15.65697,24.76258 -13.31724,3.40724 -24.50206,-12.56362 -36.07065,-19.98832 -8.58471,-5.50965 -16.80869,-24.699882 -24.633954,-18.156276 -7.139182,5.969896 4.942589,19.385096 12.325314,25.051036 5.54876,4.25845 14.21718,1.18097 20.5834,4.07828 8.29416,3.77473 13.05451,13.62237 21.62065,16.73088 7.00621,2.54243 18.88998,-5.76351 22.34391,0.84113 9.37147,17.92023 -33.08256,30.87415 -32.71217,51.09349 0.23825,13.0059 16.03566,20.6349 22.23139,32.0727 5.84796,10.7958 19.082,22.98538 13.8934,34.11311 -10.88474,23.34394 -47.84426,22.11692 -73.553882,23.67661 -16.438356,0.99724 -32.096749,-8.04834 -48.514417,-9.34225 -14.374355,-1.13287 -34.071735,12.55879 -43.2333206,1.42457 -10.4306111,-12.67648 7.9481856,-31.87164 11.0701406,-47.98823 2.321683,-11.98531 5.858066,-23.97286 5.688926,-36.1798 -0.157299,-11.35238 -10.330672,-22.90397 -6.220885,-33.48749 3.716255,-9.5701 17.362541,-11.25465 24.586803,-18.54899 5.890798,-5.94794 13.866604,-11.8902 14.930957,-20.19361 C 59.102254,106.01888 47.793121,96.430842 44.700036,85.280528 41.360061,73.240197 31.952252,58.757338 38.746908,48.271268 Z"
       id="path1"
       sodipodi:nodetypes="aaaaaaaaaaaaaaaaaaaaaaaaaaa" />
    <path
       style="fill:#c8beb7;stroke:#49e900;stroke-width:0.499999;stroke-linecap:square;paint-order:fill markers stroke"
       d="m 80.432222,145.53314 c 6.920474,-3.32787 16.701781,-2.23812 22.917008,2.27546 2.45701,1.78431 3.42086,5.31616 3.6715,8.34594 0.41381,5.00214 0.0696,11.30136 -3.71471,14.59077 -3.918136,3.40573 -10.866249,-0.70865 -15.471039,1.68414 -5.556694,2.88743 -11.02803,6.54312 -12.411715,14.11832 4.20562,7.13762 17.564587,7.45813 20.189947,16.59949 -14.358294,10.22328 -21.155664,2.92368 -31.57366,5.21831 -5.567889,1.22637 -12.560825,8.70079 -16.486064,4.55897 -8.289661,-8.74704 6.175833,-23.46839 11.402657,-34.33394 5.697423,-11.84383 9.644875,-27.36814 21.476076,-33.05746 z"
       id="path2"
       sodipodi:nodetypes="aaaaaccaaaa" />
    <path
       style="fill:#c8beb7;stroke:none;stroke-width:0.499999;stroke-linecap:square;paint-order:fill markers stroke"
       d="m 125.83029,78.032974 c -11.63533,-6.727255 12.6056,-16.580132 19.94849,-15.851198 7.34289,0.728934 16.96849,7.576409 17.473,13.007642 0.50451,5.431233 -5.07284,19.08447 -13.87196,16.054371 -8.79912,-3.030099 -11.9142,-6.48356 -23.54953,-13.210815 z"
       id="path3"
       sodipodi:nodetypes="zzzzz" />
    <path
       style="fill:#008000;stroke:none;stroke-width:0.499999;stroke-linecap:square;paint-order:fill markers stroke"
       d="m 68.93286,223.82989 c -3.706387,4.62396 4.335722,4.72391 7.52769,10.78739 15.324398,29.11032 6.646427,11.0621 16.726132,11.25453 10.079708,0.19243 16.228868,-9.18845 20.429538,-18.21759 4.20066,-9.02915 2.96166,-24.45158 0.91716,-32.36541 -2.0445,-7.91384 -4.28072,-12.77132 -9.87682,-16.54737 -5.596102,-3.77606 -17.826753,-6.79324 -22.177126,-1.36759 -4.350373,5.42564 -6.955081,15.55761 6.457976,16.67758 5.718964,0.47753 4.843911,4.06995 3.561263,11.30858 -1.268961,7.16138 -19.859426,13.84591 -23.565813,18.46988 z"
       id="path4"
       sodipodi:nodetypes="ssssssssss" />
    <path
       style="fill:#00ffff;stroke:none;stroke-width:0.499999;stroke-linecap:square;paint-order:fill markers stroke"
       d="m 44.178341,219.53976 c -3.575085,3.52532 4.153494,13.13512 7.457897,16.66291 3.304403,3.52779 15.514426,6.4934 12.206887,-3.36242 -3.30754,-9.85582 13.270999,-17.27444 9.733745,-21.02772 -3.537254,-3.75328 -25.823444,4.20191 -29.398529,7.72723 z"
       id="path5"
       sodipodi:nodetypes="zzzzz" />
    <path
       style="fill:#ff6600;fill-opacity:1;stroke:none;stroke-width:0.499999;stroke-linecap:square;paint-order:fill markers stroke"
       d="m 41.057491,240.81013 c 7.204985,-3.85431 22.665489,1.68458 28.380851,0.67151 5.715362,-1.01307 2.263099,-4.00334 5.991669,-2.35516 3.728571,1.64819 3.924922,11.25554 9.425669,13.96115 5.500748,2.7056 8.468422,-6.11464 14.948793,-2.53227 6.480367,3.58237 23.372367,29.90707 6.799397,24.7518 -32.190661,-10.01338 -70.258788,-1.80738 -76.591233,-17.06315 -6.332445,-15.25577 3.839869,-13.57957 11.044854,-17.43388 z"
       id="path6"
       sodipodi:nodetypes="ssssssss" />
    <text
       xml:space="preserve"
       style="font-size:7.7611px;line-height:1.25;font-family:DugiBialan;-inkscape-font-specification:DugiBialan;text-decoration-color:#000000;fill:#000000;stroke-width:0.264583;-inkscape-stroke:none;stop-color:#000000"
       x="35.521732"
       y="250.17204"
       id="text6"><tspan
         sodipodi:role="line"
         id="tspan6"
         style="stroke-width:0.264583"
         x="35.521732"
         y="250.17204">man mengi</tspan><tspan
         sodipodi:role="line"
         style="stroke-width:0.264583"
         x="35.521732"
         y="259.99078"
         id="tspan7"> Edogas</tspan></text>
    <text
       xml:space="preserve"
       style="font-size:7.7611px;line-height:1.25;font-family:DugiBialan;-inkscape-font-specification:DugiBialan;text-decoration-color:#000000;fill:#000000;stroke-width:0.264583;-inkscape-stroke:none;stop-color:#000000"
       x="-152.20285"
       y="195.01241"
       id="text8"
       transform="rotate(-58.945175)"><tspan
         sodipodi:role="line"
         id="tspan8"
         style="stroke-width:0.264583"
         x="-152.20285"
         y="195.01241">man giasi</tspan><tspan
         sodipodi:role="line"
         style="stroke-width:0.264583"
         x="-152.20285"
         y="204.83116"
         id="tspan9">Edowan</tspan></text>
    <path
       style="fill:#ffff00;fill-opacity:1;stroke:none;stroke-width:0.499999;stroke-linecap:square;paint-order:fill markers stroke"
       d="m 151.59919,169.39484 c -17.47953,16.38494 -17.59992,31.75524 1.15309,46.02241 0,0 -26.53248,-4.17605 -23.56362,-22.43542 2.85457,-17.55651 22.41053,-23.58699 22.41053,-23.58699 z"
       id="path9"
       sodipodi:nodetypes="ccsc" />
    <text
       xml:space="preserve"
       style="font-size:7.7611px;line-height:1.25;font-family:DugiBialan;-inkscape-font-specification:DugiBialan;text-decoration-color:#000000;fill:#000000;stroke-width:0.264583;-inkscape-stroke:none;stop-color:#000000"
       x="-131.70139"
       y="204.78432"
       id="text10"
       transform="rotate(-65.094867)"><tspan
         sodipodi:role="line"
         id="tspan10"
         style="stroke-width:0.264583"
         x="-131.70139"
         y="204.78432">man elena</tspan><tspan
         sodipodi:role="line"
         style="stroke-width:0.264583"
         x="-131.70139"
         y="214.60307"
         id="tspan11">Iadebei</tspan></text>
    <path
       style="fill:#c8beb7;fill-opacity:1;stroke:none;stroke-width:0.499999;stroke-linecap:square;paint-order:fill markers stroke"
       d="M 92.316934,102.47921 96.029094,86.341002 88.37166,85.148101 72.176343,99.104316 82.843663,121.6943 96.351266,107.90098 Z"
       id="path11" />
    <text
       xml:space="preserve"
       style="font-size:7.7611px;line-height:1.25;font-family:DugiBialan;-inkscape-font-specification:DugiBialan;text-decoration-color:#000000;fill:#000000;stroke-width:0.264583;-inkscape-stroke:none;stop-color:#000000"
       x="-80.898972"
       y="111.68373"
       id="text12"
       transform="rotate(-68.95813)"><tspan
         sodipodi:role="line"
         id="tspan12"
         style="stroke-width:0.264583"
         x="-80.898972"
         y="111.68373">enin zewi</tspan><tspan
         sodipodi:role="line"
         style="stroke-width:0.264583"
         x="-80.898972"
         y="121.50249"
         id="tspan13">Uwenegein</tspan></text>
    <path
       style="fill:#ff6600;fill-opacity:1;stroke:none;stroke-width:0.499999;stroke-linecap:square;paint-order:fill markers stroke"
       d="m 111.46454,54.50945 c -3.47161,4.361935 -0.37343,15.805565 4.29222,17.423301 4.66565,1.617736 3.19694,-4.284326 9.21841,-7.18009 6.02147,-2.895764 20.07076,-9.127936 27.6255,-6.60777 7.55474,2.520166 6.07741,14.403153 12.36633,14.920737 6.28892,0.517584 14.35355,-3.173037 13.9615,-12.110145 -0.39205,-8.937108 -18.05348,-20.249598 -28.50201,-20.643096 -10.44853,-0.393498 -16.54086,12.531659 -23.45907,14.432719 -6.91821,1.90106 -12.03127,-4.597591 -15.50288,-0.235656 z"
       id="path13"
       sodipodi:nodetypes="sssssssss" />
    <text
       xml:space="preserve"
       style="font-size:7.7611px;line-height:1.25;font-family:DugiBialan;-inkscape-font-specification:DugiBialan;text-decoration-color:#000000;fill:#000000;stroke-width:0.264583;-inkscape-stroke:none;stop-color:#000000"
       x="134.49281"
       y="50.92831"
       id="text14"><tspan
         sodipodi:role="line"
         id="tspan14"
         style="stroke-width:0.264583"
         x="134.49281"
         y="50.92831">man mengi </tspan><tspan
         sodipodi:role="line"
         style="stroke-width:0.264583"
         x="134.49281"
         y="60.747074"
         id="tspan15">Ubas</tspan></text>
    <path
       style="fill:#008000;fill-opacity:1;stroke:none;stroke-width:0.499999;stroke-linecap:square;paint-order:fill markers stroke"
       d="m 109.7856,125.39862 16.95867,0.62187 11.38335,11.35327 -2.50598,6.97968 -26.55264,0.48579 z"
       id="path15" />
    <path
       style="fill:#008000;fill-opacity:1;stroke:none;stroke-width:0.499999;stroke-linecap:square;paint-order:fill markers stroke"
       d="m 123.09427,109.21068 11.55757,15.99749 7.58379,3.86613 5.057,-5.67889 9.69069,-11.23327 -19.69609,-7.56969 -6.89125,-9.711058 z"
       id="path16" />
    <path
       style="fill:#49e900;fill-opacity:1;stroke-width:0.499999;stroke-linecap:square;paint-order:fill markers stroke"
       d="m 168.60454,279.74358 c -1.23147,-6.73938 8.29059,-8.47462 12.36072,-12.66309 4.07013,-4.18847 8.25615,-13.83691 12.06058,-12.46709 3.80443,1.36982 -0.63726,2.18879 0.53616,6.89427 1.17342,4.70548 10.70598,14.44821 8.86579,20.33364 -1.84019,5.88543 -6.24345,7.4148 -12.60346,7.78901 -6.36001,0.37421 -19.98832,-3.14736 -21.21979,-9.88674 z"
       id="path7"
       sodipodi:nodetypes="sssssss" />
  </g>
</svg>
