<?xml version="1.0" encoding="UTF-8" standalone="no"?>
<!-- Created with Inkscape (http://www.inkscape.org/) -->

<svg
   width="100"
   height="100"
   viewBox="0 0 26.458333 26.458333"
   version="1.1"
   id="svg1"
   inkscape:version="1.4.2 (ebf0e940d0, 2025-05-08)"
   sodipodi:docname="dugibelan-1.svg"
   xmlns:inkscape="http://www.inkscape.org/namespaces/inkscape"
   xmlns:sodipodi="http://sodipodi.sourceforge.net/DTD/sodipodi-0.dtd"
   xmlns="http://www.w3.org/2000/svg"
   xmlns:svg="http://www.w3.org/2000/svg">
  <sodipodi:namedview
     id="namedview1"
     pagecolor="#ffffff"
     bordercolor="#000000"
     borderopacity="0.25"
     inkscape:showpageshadow="2"
     inkscape:pageopacity="0.0"
     inkscape:pagecheckerboard="0"
     inkscape:deskcolor="#d1d1d1"
     inkscape:document-units="mm"
     inkscape:zoom="4.28"
     inkscape:cx="38.434579"
     inkscape:cy="14.485981"
     inkscape:window-width="1920"
     inkscape:window-height="1056"
     inkscape:window-x="1920"
     inkscape:window-y="0"
     inkscape:window-maximized="1"
     inkscape:current-layer="layer1"
     showgrid="true">
    <inkscape:grid
       id="grid1"
       units="mm"
       originx="0"
       originy="0"
       spacingx="0.99999999"
       spacingy="0.99999999"
       empcolor="#0099e5"
       empopacity="0.30196078"
       color="#0099e5"
       opacity="0.14901961"
       empspacing="5"
       enabled="true"
       visible="true" />
  </sodipodi:namedview>
  <defs
     id="defs1" />
  <g
     inkscape:label="Layer 1"
     inkscape:groupmode="layer"
     id="layer1">
    <rect
       style="fill:#bcd35f;fill-opacity:1;stroke:none;stroke-width:0.799999;stroke-linecap:square;stroke-linejoin:round;paint-order:fill markers stroke"
       id="rect19"
       width="26.458332"
       height="26.458332"
       x="1.2715658e-06"
       y="1.2715658e-06" />
    <rect
       style="fill:#000000;fill-opacity:1;stroke-width:0.799999;stroke-linecap:square;stroke-linejoin:round;paint-order:fill markers stroke"
       id="rect5"
       width="43.5"
       height="3"
       x="-45.562885"
       y="-0.82474005"
       transform="rotate(0.06869189)"
       inkscape:transform-center-x="-19.056182"
       inkscape:transform-center-y="-1.5648454" />
    <rect
       style="fill:#000000;fill-opacity:1;stroke-width:0.800101;stroke-linecap:square;stroke-linejoin:round;paint-order:fill markers stroke"
       id="rect5-5"
       width="43.508354"
       height="3.0001898"
       x="0.89257514"
       y="-25.065201"
       transform="matrix(0.00130717,0.99999915,0.99971431,-0.02390203,0,0)"
       inkscape:transform-center-x="1.5624247"
       inkscape:transform-center-y="19.095886" />
    <path
       id="path5"
       style="fill:#000000;fill-opacity:1;stroke-width:0.799999;stroke-linecap:square;stroke-linejoin:round;paint-order:fill markers stroke"
       d="m -36.595404,11.146888 a 5,4 0 0 0 2.500106,3.463871 5,4 0 0 0 4.999695,0 5,4 0 0 0 2.500103,-3.463871 h -2.55023 a 2.75,2.2 0 0 1 -1.074869,0.904854 2.75,2.2 0 0 1 -2.749703,0 2.75,2.2 0 0 1 -1.074353,-0.904854 z" />
    <path
       id="path5-6"
       style="fill:#000000;fill-opacity:1;stroke-width:0.799999;stroke-linecap:square;stroke-linejoin:round;paint-order:fill markers stroke"
       d="m -20.595406,11.146709 a 5,4 0 0 0 2.500106,3.463871 5,4 0 0 0 4.999695,0 5,4 0 0 0 2.500105,-3.463871 h -2.550232 a 2.75,2.2 0 0 1 -1.074869,0.904854 2.75,2.2 0 0 1 -2.749703,0 2.75,2.2 0 0 1 -1.074353,-0.904854 z" />
    <path
       style="fill:#ffffff;fill-opacity:1;stroke-width:0.799999;stroke-linecap:square;stroke-linejoin:round;paint-order:fill markers stroke"
       id="path6"
       d="m -31.815478,3.1467087 c -2,0 -3.949093,4.9999999 -1,4.9999999 2,0 1,2.0000004 0,3.0000004 3,0 4.40743,-5.1610958 2,-5.0000003 -1.995537,0.1335333 -2,-2 -1,-3 z"
       sodipodi:nodetypes="cscsc" />
    <path
       style="fill:#ffffff;fill-opacity:1;stroke-width:0.799999;stroke-linecap:square;stroke-linejoin:round;paint-order:fill markers stroke"
       id="path6-7"
       d="m -15.815478,3.1467086 c -2,0 -3.949092,4.9999999 -1,4.9999999 2,0 1,2.0000005 0,3.0000005 3,0 4.407431,-5.1610959 2,-5.0000004 -1.995537,0.1335333 -2,-2 -1,-3 z"
       sodipodi:nodetypes="cscsc" />
    <path
       style="fill:#1a1a1a;fill-opacity:1;stroke-width:0.8;stroke-linecap:square;stroke-linejoin:round;paint-order:fill markers stroke"
       id="path7"
       d="M 0.87774339,5.3426261 C 4.5675086,4.6079235 8.3432497,4.5914544 12.0866,4.483591 15.612254,4.3820005 19.139466,4.2539395 22.657761,4.0000454 24.442969,3.8712178 26.237067,3.7503927 28.000002,3.4426902 27.044698,2.8338939 26.845878,1.7770576 25.957283,1.0714345 24.424603,1.3564515 22.864436,1.795165 21.343777,1.9602632 18.127194,2.3094881 14.739851,2.4218557 11.429889,2.5672703 8.1199267,2.7126849 4.8676171,2.5391867 1.4868012,2.8323704 0.718293,2.8990163 -0.61168949,2.880804 -1,3.1089196 Z"
       sodipodi:nodetypes="cssccssscc" />
    <path
       style="fill:#1a1a1a;fill-opacity:1;stroke-width:0.799999;stroke-linecap:square;stroke-linejoin:round;paint-order:fill markers stroke"
       id="path8"
       d="m 11.80723,3.2226879 c 0.369872,0.6966908 0.479609,1.5047675 0.583945,2.2771672 0.291456,2.1576368 0.433007,6.4147829 0.122701,10.0995449 -0.182515,2.16729 -0.790622,4.62717 -1.56909,7.463634 -0.198708,0.724025 -0.370226,1.608284 -0.923209,2.117471 0,0 -0.1306258,0.122061 -0.027468,0.239984 0.758547,0.420916 1.950024,0.949725 2.546125,1.579511 0.642954,-0.167468 0.550284,-1.068736 0.717481,-1.61645 1.00403,-3.289082 1.285285,-5.748064 1.406174,-8.738496 0.09221,-2.281111 0.08258,-7.0867543 0.03224,-9.3708754 -0.02258,-1.0238574 0.04022,-2.8521009 -0.09361,-3.3806352 z"
       sodipodi:nodetypes="cssscccssscc" />
    <path
       style="fill:#1a1a1a;fill-opacity:1;stroke-width:0.799999;stroke-linecap:square;stroke-linejoin:round;paint-order:fill markers stroke"
       id="path11"
       d="m 1.627052,11.477064 c -0.1924953,0.751971 0.064439,1.533511 0.3850735,2.210077 0.2325763,0.490756 0.9842324,0.884815 1.4792917,1.103609 0.7015073,0.37796 1.3892466,0.803746 2.1352593,1.083316 0.5999569,0.06148 1.8071427,-0.09489 2.3733236,-0.286565 0.740108,-0.250557 1.4462723,-0.628586 2.0575789,-1.11605 0.390537,-0.311419 1.097958,-1.030614 1.398931,-1.426394 0,0 -0.15231,-0.323488 -0.419726,-0.671315 -0.223438,-0.290624 -0.422903,-0.622508 -0.792511,-0.620825 -0.126847,0.249485 -0.9314707,1.00879 -1.4450678,1.485275 -0.9652409,0.895494 -2.8566638,1.293188 -4.1510901,1.332601 0,0 -0.9093586,-0.175457 -1.0668248,-0.93124 -0.073973,-0.355046 -0.1106809,-0.721541 -0.08006,-1.079058 0,0 -0.304895,-0.250947 -0.4794976,-0.343571 z"
       sodipodi:nodetypes="csccsscscscscsc" />
    <path
       style="fill:#ffffff;fill-opacity:1;stroke-width:0.799999;stroke-linecap:square;stroke-linejoin:round;paint-order:fill markers stroke"
       id="path12"
       d="m 6.3912401,7.140187 c -0.361649,0.5365413 -0.868317,0.9493419 -1.336584,1.3875219 -0.315555,0.2952794 -0.69614,0.5172238 -1.001835,0.821766 -0.241419,0.2405082 0.184736,0.4263256 0.369403,0.5079581 0.902693,0.399038 1.370515,0.533567 2.340971,0.683802 -0.08359,0.457611 -0.255264,1.095644 -0.537288,1.498819 -0.276995,0.395986 -0.590579,0.761165 -0.802868,1.097643 0.227357,-0.03495 0.451084,-0.193734 0.704297,-0.191744 0.250639,0.002 0.500407,-0.02065 0.738398,-0.121419 0.459939,-0.194753 0.949112,-0.394499 1.249404,-0.814378 0.196484,-0.274732 0.463063,-0.587493 0.395537,-0.941327 -0.048742,-0.255407 -0.305191,-0.357764 -0.510675,-0.481329 -0.540668,-0.325121 -0.874352,-0.6008625 -1.433153,-0.8941241 0,0 0.630049,-0.5634643 1.314722,-1.0835054 0.10808,-0.082092 0.560942,-0.2313376 0.378239,-0.341635 z"
       sodipodi:nodetypes="cssscscssssscssc" />
    <path
       style="fill:#1a1a1a;fill-opacity:1;stroke-width:0.799999;stroke-linecap:square;stroke-linejoin:round;paint-order:fill markers stroke"
       id="path11-3"
       d="m 15.569473,10.593114 c -0.192495,0.751971 0.06444,1.533511 0.385073,2.210077 0.232577,0.490756 1.200598,1.116635 1.695657,1.335429 0.701507,0.37796 1.172882,0.571926 1.918895,0.851496 0.599956,0.06148 1.807142,-0.09489 2.373323,-0.286565 0.740108,-0.250557 1.446272,-0.628586 2.057579,-1.11605 0.390537,-0.311419 1.097958,-1.030614 1.398931,-1.426394 0,0 -0.15231,-0.323488 -0.419726,-0.671315 -0.223438,-0.290624 -0.422903,-0.622508 -0.792511,-0.620825 -0.126847,0.249485 -0.931471,1.00879 -1.445068,1.485275 -0.965241,0.895494 -2.640299,1.525008 -3.934725,1.564421 0,0 -0.724833,-0.239109 -1.066825,-0.93124 -0.197607,-0.399922 -0.327046,-0.953361 -0.296425,-1.310878 0,0 -0.304895,-0.250947 -0.479497,-0.343571 z"
       sodipodi:nodetypes="csccsscscscscsc" />
    <path
       style="fill:#ffffff;fill-opacity:1;stroke-width:0.799999;stroke-linecap:square;stroke-linejoin:round;paint-order:fill markers stroke"
       id="path12-7"
       d="m 20.333661,6.2562375 c -0.361649,0.5365413 -0.868317,0.9493419 -1.336584,1.3875219 -0.315555,0.2952794 -0.69614,0.5172238 -1.001835,0.821766 -0.241419,0.2405082 0.184736,0.4263256 0.369403,0.5079581 0.902693,0.3990381 1.138695,0.6262945 2.109151,0.77653 0.179139,0.4885205 -0.02344,1.0029155 -0.305468,1.4060905 C 19.891333,11.55209 19.212289,12.071815 19,12.408293 c 0.520995,-0.143132 0.816544,-0.34828 1.069757,-0.34629 0.250639,0.002 0.500407,-0.02065 0.738398,-0.121419 0.459939,-0.194753 0.949112,-0.394499 1.249404,-0.814378 0.196484,-0.274732 0.5867,-0.850221 0.519174,-1.2040563 -0.291177,-0.7696678 -1.387155,-0.7651493 -2.067465,-1.1127233 0,0 0.630049,-0.5634643 1.314722,-1.0835054 C 21.93207,7.643829 22.185756,7.303906 22,7.1988304 Z"
       sodipodi:nodetypes="cssscscsssscssc" />
  </g>
  <g
     inkscape:groupmode="layer"
     id="layer2"
     inkscape:label="Layer 2"
     sodipodi:insensitive="true">
    <rect
       style="fill:#a7ac93;fill-opacity:1;stroke:none;stroke-width:0.799998;stroke-linecap:square;stroke-linejoin:round;paint-order:fill markers stroke"
       id="rect1"
       width="5.000001"
       height="5"
       x="35"
       y="5" />
    <rect
       style="fill:#bcd35f;fill-opacity:1;stroke:none;stroke-width:0.8;stroke-linecap:square;stroke-linejoin:round;paint-order:fill markers stroke"
       id="rect2"
       width="5.0000014"
       height="5"
       x="35"
       y="10" />
    <rect
       style="fill:#000000;fill-opacity:1;stroke:none;stroke-width:0.799999;stroke-linecap:square;stroke-linejoin:round;paint-order:fill markers stroke"
       id="rect3"
       width="5.0000014"
       height="5"
       x="35"
       y="15" />
    <rect
       style="fill:#ffffff;fill-opacity:1;stroke:none;stroke-width:0.799996;stroke-linecap:square;stroke-linejoin:round;paint-order:fill markers stroke"
       id="rect4"
       width="5.0000005"
       height="5.0000005"
       x="35"
       y="20" />
  </g>
</svg>
