<?xml version="1.0" encoding="UTF-8" standalone="no"?>
<!-- Created with Inkscape (http://www.inkscape.org/) -->

<svg
   width="100"
   height="100"
   viewBox="0 0 26.458333 26.458333"
   version="1.1"
   id="svg1"
   inkscape:version="1.4.2 (ebf0e940d0, 2025-05-08)"
   sodipodi:docname="elena-3.svg"
   xmlns:inkscape="http://www.inkscape.org/namespaces/inkscape"
   xmlns:sodipodi="http://sodipodi.sourceforge.net/DTD/sodipodi-0.dtd"
   xmlns="http://www.w3.org/2000/svg"
   xmlns:svg="http://www.w3.org/2000/svg">
  <sodipodi:namedview
     id="namedview1"
     pagecolor="#ffffff"
     bordercolor="#000000"
     borderopacity="0.25"
     inkscape:showpageshadow="2"
     inkscape:pageopacity="0.0"
     inkscape:pagecheckerboard="0"
     inkscape:deskcolor="#d1d1d1"
     inkscape:document-units="mm"
     inkscape:zoom="4.28"
     inkscape:cx="41.705607"
     inkscape:cy="66.588785"
     inkscape:window-width="1920"
     inkscape:window-height="1056"
     inkscape:window-x="1920"
     inkscape:window-y="0"
     inkscape:window-maximized="1"
     inkscape:current-layer="layer1"
     showgrid="true">
    <inkscape:grid
       id="grid1"
       units="mm"
       originx="0"
       originy="0"
       spacingx="0.99999999"
       spacingy="0.99999999"
       empcolor="#0099e5"
       empopacity="0.30196078"
       color="#0099e5"
       opacity="0.14901961"
       empspacing="5"
       enabled="true"
       visible="true" />
  </sodipodi:namedview>
  <defs
     id="defs1" />
  <g
     inkscape:label="Layer 1"
     inkscape:groupmode="layer"
     id="layer1">
    <rect
       style="fill:#ffffff;fill-opacity:1;stroke:none;stroke-width:0.799999;stroke-linecap:square;stroke-linejoin:round;paint-order:fill markers stroke"
       id="rect19"
       width="26.458332"
       height="26.458332"
       x="0"
       y="0" />
    <path
       sodipodi:type="star"
       style="fill:#a7ac93;fill-opacity:1;stroke:none;stroke-width:2.02507;stroke-linecap:square;stroke-linejoin:round;paint-order:fill markers stroke"
       id="path1"
       inkscape:flatsided="true"
       sodipodi:sides="3"
       sodipodi:cx="0.98909658"
       sodipodi:cy="10.13824"
       sodipodi:r1="29.635847"
       sodipodi:r2="14.817924"
       sodipodi:arg1="0.52432071"
       sodipodi:arg2="1.5715183"
       inkscape:rounded="0"
       inkscape:randomized="0"
       d="M 26.643789,24.974688 -24.686991,24.937631 1.0104917,-19.4976 Z"
       inkscape:transform-center-x="0.0054977145"
       inkscape:transform-center-y="-2.2472823"
       transform="matrix(0.51387012,0,0,0.30369926,12.766886,18.873539)" />
    <path
       style="fill:#000000;fill-opacity:1;stroke-width:0.800003;stroke-linecap:square;stroke-linejoin:round;paint-order:fill markers stroke"
       id="path2"
       d="m 2.1721715,27.579757 c 0.1098456,-0.03121 0.2316676,-0.01554 0.3390983,-0.0552 0.077216,-0.02851 0.1455555,-0.07786 0.2125829,-0.125646 0.3028911,-0.215896 0.5070025,-0.513237 0.7260601,-0.807687 0.1146114,-0.15284 0.2327404,-0.303106 0.3438345,-0.458522 0.5222629,-0.730625 0.4618175,-0.719754 1.0733928,-1.485186 0.2430919,-0.304247 0.4987855,-0.598283 0.7543263,-0.892153 0.3935403,-0.452567 1.2546485,-1.397827 1.6561142,-1.840688 0.279812,-0.355722 0.5505657,-0.71876 0.8394365,-1.067166 0.2961466,-0.357181 0.6104498,-0.698913 0.9150494,-1.048913 0.7646796,-0.878655 1.0538025,-1.237824 1.8562025,-2.073667 0.58939,-0.613955 1.070659,-1.060931 1.680148,-1.641866 0.558249,-0.496261 1.084198,-1.025683 1.636376,-1.528363 0.108522,-0.0988 0.223561,-0.19074 0.32662,-0.295219 0.07006,-0.07103 0.12705,-0.15387 0.191494,-0.230037 0.04428,-0.05233 0.08976,-0.103618 0.134642,-0.155427 0.04738,-0.05845 0.124421,-0.08313 0.176677,-0.135957 0.02092,-0.02116 0.08084,-0.05815 0.05404,-0.07104 -1.108747,-0.533237 -2.225617,-1.051894 -3.363207,-1.520459 -0.01781,-0.0073 -0.05242,0.149901 -0.05934,0.17898 -0.0035,0.0169 -0.01314,0.03363 -0.01049,0.05067 0.0019,0.01242 0.01558,0.01973 0.02301,0.02986 0.0076,0.01038 0.01131,0.02474 0.02218,0.03164 0.11774,0.07458 0.239669,0.14238 0.360947,0.211061 0.857949,0.485867 0.338727,0.16385 1.027537,0.608409 0,0 0.09723,0.04436 0.09723,0.04436 v 0 c 0.873387,0.275325 0.144069,0.03417 1.177349,0.417491 0.241802,0.0897 0.374232,0.216051 0.574191,0.08637 0.01198,-0.0038 0.02755,-0.02087 0.03594,-0.01154 0.01295,0.01446 0.02343,0.06586 0.0057,0.05796 -1.115633,-0.496492 -2.225613,-1.006206 -3.32602,-1.535641 -0.01945,-0.0094 0.03071,-0.04789 0.05085,-0.04012 0.05518,0.02128 -0.07637,0.188618 -0.0058,0.177313 -0.119877,0.25617 -0.04924,0.116158 -0.218025,0.416903 -0.05689,0.119318 -0.0982,0.245597 -0.153603,0.365619 -0.289447,0.627036 -0.663344,1.20716 -1.017916,1.798258 -0.5082072,0.7637 -0.6982072,1.07616 -1.2777799,1.825767 C 8.3326655,17.763155 8.0069498,18.100564 7.2474425,18.966675 5.987513,20.403446 6.6931258,19.644621 5.3535753,21.014558 5.0796346,21.322655 4.8107714,21.635344 4.5317538,21.938852 4.0214926,22.493901 3.3674713,23.166899 2.8166494,23.684906 1.874125,24.571279 2.2037501,24.208676 1.3388899,24.985078 1.188627,25.119971 1.0464997,25.263662 0.9003046,25.402954 0.64283289,25.657572 0.55033794,25.727178 0.34800641,25.9951 0.28633371,26.07676 0.142167,26.279262 0.12707068,26.399981 c -0.0109392,0.08748 0.0471913,0.172941 0.0462354,0.260413 z"
       inkscape:transform-center-x="6.2062345"
       inkscape:transform-center-y="6.2354228" />
    <path
       style="fill:#000000;fill-opacity:1;stroke-width:0.799999;stroke-linecap:square;stroke-linejoin:round;paint-order:fill markers stroke"
       id="path3"
       d="m 25.7487,27.563022 c -0.03587,-0.02115 -0.07568,-0.03544 -0.107605,-0.06345 -0.38638,-0.339003 -0.617992,-0.872715 -0.894992,-1.305124 -0.224346,-0.350215 -0.451334,-0.698951 -0.695435,-1.0321 C 23.742545,24.741821 23.410569,24.344051 23.090519,23.934903 21.946268,22.475566 21.693463,22.104157 20.415793,20.691617 19.879585,20.098809 19.317395,19.536341 18.771938,18.954263 18.19115,18.33448 17.621716,17.701298 17.037094,17.086074 15.66632,15.643546 14.859754,14.858805 13.458423,13.462531 12.8805,12.894814 12.297866,12.333084 11.724653,11.759382 9.4996476,9.5324761 10.602304,10.538636 8.3515712,8.4215971 6.8841648,7.0413554 5.3755246,5.7242978 3.8563605,4.4173997 3.3376109,3.973439 2.1699878,2.9767895 1.6178395,2.4949995 1.353636,2.2644622 1.0864217,2.0379269 0.82975353,1.7969015 0.81658658,1.7845427 0.00220161,1.0282439 0,0.80784848 -0.00223169,0.58724782 0.18503686,0.41856509 0.27755578,0.22392339 c 0.10411495,-0.12841877 0.2082299,-0.25683754 0.31234485,-0.38525653 0,0 0.11265164,-0.0852109 0.11265164,-0.0852109 v 0 C 0.90461592,-0.33439182 1.1066806,-0.42224013 1.3087442,-0.51008802 1.5739355,-0.56286355 1.8362673,-0.6978134 2.104318,-0.66841583 2.3929614,-0.63675922 3.015009,0.01637595 3.1621567,0.17109372 3.3982827,0.41936769 3.6223925,0.68172981 3.8479073,0.94213807 4.1399738,1.279396 5.4754818,2.8678983 5.6997342,3.1341769 6.0774044,3.5831408 6.4509644,4.0365063 6.8327438,4.4810687 7.6558722,5.4395579 8.7336524,6.6495796 9.5761556,7.5697425 14.32332,12.754485 7.8705031,5.6715323 12.819891,11 c 0.544764,0.586487 1.071461,1.19376 1.607192,1.790639 1.381239,1.505577 2.031988,2.246836 3.47772,3.692108 0.607687,0.607494 1.234411,1.190564 1.850526,1.787268 0.576798,0.558625 1.141617,1.133089 1.728208,1.678713 1.324606,1.2321 1.92955,1.701144 3.284907,2.822269 0.991309,0.84846 1.262674,1.109347 2.247751,1.854128 0.569818,0.430818 0.666321,0.438456 1.110242,0.82821 0.190919,0.167623 0.157529,0.131437 0.252666,0.300305 z" />
  </g>
  <g
     inkscape:groupmode="layer"
     id="layer2"
     inkscape:label="Layer 2"
     sodipodi:insensitive="true">
    <rect
       style="fill:#a7ac93;fill-opacity:1;stroke:none;stroke-width:0.799998;stroke-linecap:square;stroke-linejoin:round;paint-order:fill markers stroke"
       id="rect1"
       width="5.000001"
       height="5"
       x="35"
       y="5" />
    <rect
       style="fill:#bcd35f;fill-opacity:1;stroke:none;stroke-width:0.8;stroke-linecap:square;stroke-linejoin:round;paint-order:fill markers stroke"
       id="rect2"
       width="5.0000014"
       height="5"
       x="35"
       y="10" />
    <rect
       style="fill:#000000;fill-opacity:1;stroke:none;stroke-width:0.799999;stroke-linecap:square;stroke-linejoin:round;paint-order:fill markers stroke"
       id="rect3"
       width="5.0000014"
       height="5"
       x="35"
       y="15" />
    <rect
       style="fill:#ffffff;fill-opacity:1;stroke:none;stroke-width:0.799996;stroke-linecap:square;stroke-linejoin:round;paint-order:fill markers stroke"
       id="rect4"
       width="5.0000005"
       height="5.0000005"
       x="35"
       y="20" />
  </g>
</svg>
